<svg aria-hidden="true" style="position: absolute; width: 0; height: 0; overflow: hidden;" version="1.1" xmlns="http://www.w3.org/2000/svg" xmlns:xlink="http://www.w3.org/1999/xlink">
<defs>
<symbol id="icon-Facebook" viewBox="0 0 16 32">
<path fill="#c0c0c0" style="fill: var(--color1, #c0c0c0)" d="M15.5 10.362h-5.113v-3.321c0-1.247 0.837-1.54 1.424-1.54h3.601v-5.483l-4.966-0.018c-5.508 0-6.758 4.089-6.758 6.708v3.654h-3.187v5.647h3.187v15.991h6.703v-15.987h4.523l0.587-5.651z"></path>
</symbol>
<symbol id="icon-Instagram" viewBox="0 0 32 32">
<path fill="#c0c0c0" style="fill: var(--color1, #c0c0c0)" d="M16 7.691c-4.582 0-8.309 3.727-8.309 8.309s3.727 8.306 8.309 8.306c4.582 0 8.306-3.727 8.306-8.306 0.003-4.582-3.724-8.309-8.306-8.309zM16 21.138c-2.834 0-5.138-2.304-5.138-5.138s2.304-5.138 5.138-5.138c2.834 0 5.138 2.304 5.138 5.138s-2.304 5.138-5.138 5.138zM22.791 0h-13.583c-5.077 0-9.209 4.132-9.209 9.209v13.583c0 5.077 4.132 9.209 9.209 9.209h13.583c5.077 0 9.209-4.132 9.209-9.209v-13.583c0-5.077-4.129-9.209-9.209-9.209zM28.832 22.791c0 3.329-2.711 6.038-6.041 6.038h-13.583c-3.329 0-6.038-2.708-6.038-6.038v-13.583c0-3.329 2.708-6.038 6.038-6.038h13.583c3.329 0 6.038 2.708 6.038 6.038v13.583h0.003zM24.422 5.29c-1.197 0-2.174 0.974-2.174 2.174 0 1.197 0.974 2.174 2.174 2.174 1.197 0 2.174-0.974 2.174-2.174s-0.977-2.174-2.174-2.174z"></path>
</symbol>
<symbol id="icon-Twitter" viewBox="0 0 38 32">
<path fill="#c0c0c0" style="fill: var(--color1, #c0c0c0)" d="M38.4 4.090c-1.413 0.628-2.931 1.049-4.524 1.242 1.628-0.974 2.874-2.519 3.462-4.357-1.523 0.904-3.212 1.558-5.002 1.913-1.435-1.531-3.484-2.488-5.748-2.488-4.353 0-7.881 3.524-7.881 7.877 0 0.619 0.070 1.22 0.202 1.795-6.547-0.329-12.352-3.462-16.236-8.232-0.676 1.163-1.066 2.519-1.066 3.963 0 2.734 1.391 5.143 3.502 6.556-1.29-0.040-2.506-0.395-3.567-0.987v0.101c0 3.818 2.716 6.999 6.319 7.723-0.658 0.18-1.356 0.276-2.076 0.276-0.509 0-1-0.048-1.479-0.14 1 3.129 3.91 5.406 7.354 5.472-2.694 2.111-6.086 3.37-9.781 3.37-0.636 0-1.259-0.035-1.878-0.11 3.489 2.233 7.626 3.537 12.076 3.537 14.489 0 22.414-12.002 22.414-22.41 0-0.342-0.009-0.68-0.022-1.018 1.54-1.115 2.879-2.501 3.932-4.081z"></path>
</symbol>
<symbol id="icon-Frame-5" viewBox="0 0 424 32">
<path fill="#fff" style="fill: var(--color2, #fff)" d="M41.049 5.053c0.109 0 0.197 0.088 0.197 0.197v0.206c0 0.109-0.088 0.197-0.197 0.197h-0.226v0.664c6.906 0.212 12.44 5.878 12.44 12.838 0 7.095-5.749 12.845-12.841 12.845s-12.843-5.751-12.843-12.845c0-6.959 5.534-12.625 12.44-12.837v-0.664h-0.226c-0.109 0-0.197-0.088-0.197-0.197v-0.206c0-0.109 0.088-0.197 0.197-0.197h1.256zM40.743 8.001v1.127c0 0.178-0.144 0.322-0.322 0.322s-0.322-0.144-0.322-0.322v-1.127c-5.907 0.168-10.662 4.924-10.83 10.832h1.127c0.178 0 0.322 0.144 0.322 0.322s-0.144 0.322-0.322 0.322h-1.127c0.168 5.908 4.923 10.664 10.83 10.832v-1.127c0-0.178 0.144-0.322 0.322-0.322s0.322 0.144 0.322 0.322v1.127c5.907-0.167 10.662-4.924 10.83-10.832h-1.127c-0.178 0-0.322-0.144-0.322-0.322s0.144-0.322 0.322-0.322h1.127c-0.167-5.909-4.922-10.665-10.83-10.832zM40.421 18.555c0.331 0 0.6 0.269 0.6 0.6 0 0.034-0.005 0.067-0.010 0.1l3.816 3.452c0.098 0.089 0.169 0.203 0.204 0.331l0.052 0.187c0.025 0.091-0.053 0.178-0.146 0.162l-0.192-0.033c-0.13-0.022-0.251-0.081-0.349-0.17l-3.817-3.452c-0.051 0.014-0.103 0.024-0.158 0.024-0.331 0-0.6-0.269-0.6-0.6s0.269-0.6 0.6-0.6z"></path>
<path fill="#fff" style="fill: var(--color2, #fff)" d="M73.398 9.075c-0.296-1.496-1.219-2.243-2.769-2.243-1.199 0-2.095 0.465-2.688 1.395-0.593 0.916-0.883 2.432-0.869 4.547 0.31-0.701 0.822-1.246 1.536-1.637 0.728-0.404 1.536-0.606 2.425-0.606 1.388 0 2.493 0.431 3.315 1.293 0.835 0.862 1.253 2.055 1.253 3.577 0 0.916-0.182 1.738-0.546 2.466-0.35 0.728-0.889 1.307-1.617 1.738-0.714 0.431-1.583 0.647-2.607 0.647-1.388 0-2.472-0.31-3.254-0.93s-1.327-1.475-1.637-2.567c-0.31-1.091-0.465-2.439-0.465-4.042 0-4.945 1.725-7.417 5.174-7.417 1.32 0 2.358 0.357 3.112 1.071s1.199 1.617 1.334 2.708h-1.698zM70.649 12.086c-0.579 0-1.125 0.121-1.637 0.364-0.512 0.229-0.93 0.586-1.253 1.071-0.31 0.472-0.465 1.051-0.465 1.738 0 1.024 0.296 1.859 0.889 2.506 0.593 0.633 1.442 0.95 2.547 0.95 0.943 0 1.691-0.29 2.243-0.869 0.566-0.593 0.849-1.388 0.849-2.385 0-1.051-0.269-1.873-0.808-2.466-0.539-0.606-1.327-0.909-2.365-0.909zM79.315 4.123l-0.243 4.022h-1.273l-0.263-4.022h1.779zM82.532 4.123l-0.243 4.022h-1.273l-0.263-4.022h1.779z"></path>
<path fill="#fff" style="fill: var(--color2, #fff)" d="M118.971 22.898l12.436 7.226c-1.993 1.198-4.305 1.876-6.776 1.876-2.033 0-3.946-0.439-5.66-1.277v-7.825zM117.974 15.831v14.372c-3.747-2.076-6.338-5.948-6.736-10.46l6.736-3.912zM138.105 18.426v0.12c0 4.551-2.272 8.583-5.74 10.979l-6.736-3.872 12.476-7.226zM131.289 6.849c3.747 2.076 6.338 5.948 6.737 10.459l-6.737 3.912v-14.372zM116.898 7.528l6.736 3.872-12.476 7.186v-0.040c0-4.591 2.272-8.623 5.74-11.019zM124.632 5.053c2.033 0 3.946 0.439 5.66 1.277v7.785l-12.437-7.226c1.993-1.158 4.305-1.836 6.776-1.836z"></path>
<path fill="#fff" style="fill: var(--color2, #fff)" d="M154.274 10.651h-2.324v9.56h-1.839v-9.56h-1.435v-1.516h1.435v-0.788c0-1.24 0.317-2.142 0.95-2.708 0.647-0.579 1.677-0.869 3.092-0.869v1.536c-0.808 0-1.381 0.162-1.718 0.485-0.323 0.31-0.485 0.829-0.485 1.556v0.788h2.324v1.516zM163.29 1.172l-5.538 22.474h-1.819l5.517-22.474h1.839zM165.242 7.276v-1.677h3.799v14.612h-1.859v-12.935h-1.94zM171.715 7.276v-1.677h3.8v14.612h-1.859v-12.935h-1.94z"></path>
<path fill="#fff" style="fill: var(--color2, #fff)" d="M254.146 5.053c2.885 0 5.223 2.356 5.223 5.263v16.421c0 2.907-2.338 5.263-5.223 5.263h-43.449c-2.885 0-5.223-2.356-5.223-5.263v-16.421c0-2.907 2.338-5.263 5.223-5.263h43.449zM226.88 9.955c-1.144 0-2.159 0.196-3.048 0.588s-1.58 0.956-2.072 1.692c-0.492 0.736-0.738 1.6-0.738 2.592 0 1.056 0.241 1.9 0.726 2.532 0.483 0.632 1.063 1.104 1.738 1.416s1.551 0.628 2.631 0.948c0.795 0.224 1.418 0.428 1.869 0.612 0.453 0.184 0.83 0.436 1.132 0.756s0.453 0.728 0.453 1.224c0 0.608-0.222 1.1-0.667 1.476s-1.056 0.564-1.834 0.564c-0.761 0-1.361-0.2-1.797-0.6-0.419-0.384-0.66-0.901-0.721-1.55l-0.007-0.082h-3.572l0.003 0.109c0.034 0.978 0.31 1.83 0.83 2.555 0.541 0.752 1.275 1.328 2.203 1.728 0.93 0.4 1.972 0.6 3.131 0.6 1.223 0 2.279-0.228 3.168-0.684s1.565-1.068 2.024-1.836 0.691-1.6 0.691-2.496c0-1.040-0.246-1.88-0.738-2.52-0.493-0.64-1.080-1.12-1.763-1.44-0.682-0.32-1.563-0.64-2.643-0.96-0.795-0.24-1.41-0.452-1.846-0.636s-0.802-0.424-1.095-0.72c-0.295-0.296-0.441-0.668-0.441-1.116 0-0.64 0.194-1.128 0.583-1.464s0.909-0.504 1.561-0.504c0.746 0 1.344 0.188 1.797 0.564 0.435 0.36 0.674 0.813 0.721 1.357l0.005 0.071h3.668l-0.008-0.102c-0.13-1.455-0.719-2.593-1.767-3.414-1.071-0.84-2.464-1.26-4.179-1.26zM244.874 9.955c-1.556 0-2.984 0.368-4.286 1.104s-2.334 1.756-3.096 3.060c-0.761 1.304-1.144 2.772-1.144 4.404 0 1.648 0.382 3.124 1.144 4.428s1.794 2.324 3.096 3.060 2.73 1.104 4.286 1.104c1.556 0 2.984-0.368 4.286-1.104s2.331-1.756 3.084-3.060c0.755-1.304 1.132-2.78 1.132-4.428 0-1.632-0.377-3.1-1.132-4.404-0.753-1.304-1.777-2.324-3.072-3.060-1.293-0.736-2.727-1.104-4.298-1.104zM216.862 10.195h-3.333v16.752h3.333v-16.752zM244.874 12.979c1 0 1.881 0.224 2.644 0.672 0.761 0.448 1.357 1.092 1.785 1.932 0.429 0.84 0.643 1.82 0.643 2.94s-0.214 2.104-0.643 2.952c-0.428 0.848-1.024 1.5-1.785 1.956-0.763 0.456-1.644 0.684-2.644 0.684s-1.885-0.228-2.654-0.684c-0.771-0.456-1.369-1.108-1.799-1.956-0.428-0.848-0.643-1.832-0.643-2.952s0.216-2.1 0.643-2.94c0.429-0.84 1.027-1.484 1.799-1.932 0.77-0.448 1.654-0.672 2.654-0.672z"></path>
<path fill="#fff" style="fill: var(--color2, #fff)" d="M275.079 12.611c-0.755-0.296-1.334-0.728-1.738-1.293s-0.606-1.253-0.606-2.061c0-0.728 0.182-1.381 0.546-1.96 0.364-0.593 0.903-1.058 1.617-1.395 0.728-0.35 1.603-0.525 2.627-0.525s1.893 0.175 2.607 0.525c0.728 0.337 1.273 0.802 1.637 1.395 0.377 0.579 0.566 1.233 0.566 1.96 0 0.781-0.209 1.469-0.627 2.061-0.418 0.579-0.99 1.011-1.718 1.293 0.835 0.256 1.496 0.707 1.981 1.354 0.499 0.633 0.748 1.401 0.748 2.304 0 0.876-0.216 1.644-0.647 2.304-0.431 0.647-1.044 1.152-1.839 1.516-0.781 0.35-1.684 0.525-2.708 0.525s-1.927-0.175-2.708-0.525c-0.768-0.364-1.368-0.869-1.799-1.516-0.431-0.66-0.647-1.428-0.647-2.304 0-0.903 0.243-1.677 0.728-2.324s1.145-1.091 1.981-1.334zM280.556 9.479c0-0.822-0.269-1.455-0.808-1.9s-1.28-0.667-2.223-0.667c-0.93 0-1.664 0.222-2.203 0.667s-0.808 1.085-0.808 1.92c0 0.755 0.276 1.361 0.829 1.819 0.566 0.458 1.293 0.687 2.183 0.687 0.903 0 1.63-0.229 2.183-0.687 0.566-0.472 0.849-1.085 0.849-1.839zM277.524 13.42c-0.997 0-1.812 0.236-2.445 0.707-0.633 0.458-0.95 1.152-0.95 2.082 0 0.862 0.303 1.556 0.909 2.082 0.62 0.525 1.448 0.788 2.486 0.788s1.859-0.263 2.466-0.788c0.606-0.525 0.909-1.219 0.909-2.082 0-0.903-0.31-1.59-0.93-2.061-0.62-0.485-1.435-0.728-2.445-0.728zM285.16 12.753c0-2.317 0.377-4.123 1.132-5.416 0.755-1.307 2.075-1.96 3.961-1.96 1.873 0 3.187 0.653 3.941 1.96 0.755 1.293 1.132 3.099 1.132 5.416 0 2.358-0.377 4.19-1.132 5.497s-2.068 1.96-3.941 1.96c-1.886 0-3.207-0.653-3.961-1.96s-1.132-3.139-1.132-5.497zM293.507 12.753c0-1.172-0.081-2.163-0.243-2.971-0.148-0.822-0.465-1.482-0.95-1.981-0.472-0.499-1.159-0.748-2.061-0.748-0.916 0-1.617 0.249-2.102 0.748-0.472 0.499-0.788 1.159-0.95 1.981-0.148 0.808-0.222 1.799-0.222 2.971 0 1.213 0.074 2.23 0.222 3.052 0.162 0.822 0.478 1.482 0.95 1.981 0.485 0.499 1.186 0.748 2.102 0.748 0.903 0 1.59-0.249 2.061-0.748 0.485-0.499 0.802-1.159 0.95-1.981 0.162-0.822 0.243-1.839 0.243-3.052zM297.851 12.753c0-2.317 0.377-4.123 1.132-5.416 0.755-1.307 2.075-1.96 3.961-1.96 1.873 0 3.187 0.653 3.941 1.96 0.755 1.293 1.132 3.099 1.132 5.416 0 2.358-0.377 4.19-1.132 5.497s-2.068 1.96-3.941 1.96c-1.886 0-3.207-0.653-3.961-1.96s-1.132-3.139-1.132-5.497zM306.198 12.753c0-1.172-0.081-2.163-0.243-2.971-0.148-0.822-0.465-1.482-0.95-1.981-0.472-0.499-1.159-0.748-2.061-0.748-0.916 0-1.617 0.249-2.102 0.748-0.472 0.499-0.788 1.159-0.95 1.981-0.148 0.808-0.222 1.799-0.222 2.971 0 1.213 0.074 2.23 0.222 3.052 0.162 0.822 0.478 1.482 0.95 1.981 0.485 0.499 1.186 0.748 2.102 0.748 0.903 0 1.59-0.249 2.061-0.748 0.485-0.499 0.802-1.159 0.95-1.981 0.162-0.822 0.243-1.839 0.243-3.052z"></path>
<path fill="#fff" style="fill: var(--color2, #fff)" d="M346.947 15.907c-1.62 0-2.931-1.253-2.931-2.802 0-1.546 1.31-2.799 2.931-2.799 1.617 0 2.927 1.253 2.927 2.799 0 1.549-1.31 2.802-2.927 2.802zM346.947 5.053c-4.65 0-8.421 3.605-8.421 8.052 0 3.246 4.478 12.952 6.904 17.969 0.596 1.236 2.434 1.236 3.035 0 2.422-5.017 6.904-14.723 6.904-17.969 0-4.446-3.771-8.052-8.421-8.052z"></path>
<path fill="#fff" style="fill: var(--color2, #fff)" d="M375.368 20.211h-1.686l-6.781-10.282v10.282h-1.686v-12.931h1.686l6.781 10.264v-10.264h1.686v12.931zM387.505 14.745c0 0.321-0.019 0.661-0.056 1.019h-8.115c0.062 1 0.403 1.785 1.019 2.353 0.63 0.556 1.389 0.834 2.279 0.834 0.729 0 1.334-0.167 1.816-0.5 0.495-0.346 0.84-0.803 1.037-1.371h1.816c-0.271 0.976-0.815 1.772-1.63 2.39-0.815 0.605-1.827 0.908-3.038 0.908-0.963 0-1.827-0.216-2.594-0.648-0.753-0.432-1.346-1.044-1.779-1.834-0.431-0.803-0.648-1.729-0.648-2.779s0.211-1.97 0.63-2.76c0.421-0.79 1.007-1.396 1.76-1.816 0.766-0.432 1.644-0.648 2.631-0.648 0.963 0 1.816 0.21 2.557 0.63s1.31 1 1.704 1.741c0.408 0.729 0.611 1.556 0.611 2.483zM385.763 14.393c0-0.642-0.141-1.192-0.426-1.649-0.283-0.469-0.672-0.821-1.167-1.056-0.482-0.247-1.019-0.371-1.612-0.371-0.852 0-1.58 0.272-2.186 0.815-0.593 0.543-0.931 1.297-1.019 2.26h6.41zM391.417 11.929c0.333-0.581 0.827-1.062 1.482-1.445 0.667-0.395 1.438-0.593 2.316-0.593 0.901 0 1.716 0.216 2.445 0.648 0.741 0.432 1.32 1.044 1.741 1.834 0.419 0.778 0.63 1.686 0.63 2.723 0 1.025-0.211 1.939-0.63 2.742-0.421 0.803-1 1.427-1.741 1.871-0.729 0.445-1.544 0.667-2.445 0.667-0.866 0-1.63-0.192-2.297-0.574-0.655-0.395-1.155-0.883-1.501-1.464v6.688h-1.686v-14.969h1.686v1.871zM398.309 15.097c0-0.766-0.155-1.433-0.463-2.001-0.31-0.568-0.729-1-1.26-1.297-0.519-0.296-1.093-0.445-1.723-0.445-0.618 0-1.192 0.154-1.723 0.463-0.519 0.296-0.94 0.735-1.26 1.315-0.31 0.568-0.463 1.229-0.463 1.982 0 0.766 0.153 1.439 0.463 2.019 0.32 0.568 0.741 1.007 1.26 1.315 0.531 0.296 1.105 0.445 1.723 0.445 0.63 0 1.204-0.148 1.723-0.445 0.531-0.309 0.95-0.747 1.26-1.315 0.308-0.581 0.463-1.26 0.463-2.038zM401.62 15.097c0-1.037 0.211-1.945 0.63-2.723 0.421-0.79 0.995-1.402 1.723-1.834 0.741-0.432 1.563-0.648 2.464-0.648 0.889 0 1.662 0.191 2.316 0.574 0.655 0.383 1.144 0.865 1.464 1.445v-1.853h1.704v10.152h-1.704v-1.89c-0.333 0.593-0.834 1.087-1.501 1.482-0.653 0.383-1.42 0.574-2.297 0.574-0.901 0-1.716-0.222-2.445-0.667-0.728-0.445-1.302-1.068-1.723-1.871-0.419-0.803-0.63-1.717-0.63-2.742zM410.216 15.116c0-0.766-0.153-1.433-0.463-2.001-0.308-0.568-0.728-1-1.26-1.297-0.519-0.309-1.093-0.463-1.723-0.463s-1.204 0.148-1.723 0.445c-0.519 0.296-0.931 0.729-1.241 1.297-0.308 0.568-0.463 1.235-0.463 2.001 0 0.778 0.155 1.457 0.463 2.038 0.31 0.568 0.723 1.007 1.241 1.315 0.519 0.296 1.093 0.445 1.723 0.445s1.204-0.148 1.723-0.445c0.532-0.309 0.952-0.747 1.26-1.315 0.31-0.581 0.463-1.254 0.463-2.019zM416.456 6.501v13.709h-1.686v-13.709h1.686z"></path>
</symbol>
<symbol id="icon-CostaRica" viewBox="0 0 539 32">
<path fill="#fff" style="fill: var(--color2, #fff)" d="M41.049 5.053c0.109 0 0.197 0.088 0.197 0.197v0.206c0 0.109-0.088 0.197-0.197 0.197h-0.226v0.664c6.906 0.212 12.44 5.878 12.44 12.838 0 7.095-5.749 12.845-12.841 12.845s-12.843-5.751-12.843-12.845c0-6.959 5.534-12.625 12.44-12.837v-0.664h-0.226c-0.109 0-0.197-0.088-0.197-0.197v-0.206c0-0.109 0.088-0.197 0.197-0.197h1.256zM40.743 8.001v1.127c0 0.178-0.144 0.322-0.322 0.322s-0.322-0.144-0.322-0.322v-1.127c-5.907 0.168-10.662 4.924-10.83 10.832h1.127c0.178 0 0.322 0.144 0.322 0.322s-0.144 0.322-0.322 0.322h-1.127c0.168 5.908 4.923 10.664 10.83 10.832v-1.127c0-0.178 0.144-0.322 0.322-0.322s0.322 0.144 0.322 0.322v1.127c5.907-0.167 10.662-4.924 10.83-10.832h-1.127c-0.178 0-0.322-0.144-0.322-0.322s0.144-0.322 0.322-0.322h1.127c-0.167-5.909-4.922-10.665-10.83-10.832zM40.421 18.555c0.331 0 0.6 0.269 0.6 0.6 0 0.034-0.005 0.067-0.010 0.1l3.816 3.452c0.098 0.089 0.169 0.203 0.204 0.331l0.052 0.187c0.025 0.091-0.053 0.178-0.146 0.162l-0.192-0.033c-0.13-0.022-0.251-0.081-0.349-0.17l-3.817-3.452c-0.051 0.014-0.103 0.024-0.158 0.024-0.331 0-0.6-0.269-0.6-0.6s0.269-0.6 0.6-0.6z"></path>
<path fill="#fff" style="fill: var(--color2, #fff)" d="M64.768 7.276v-1.677h3.8v14.612h-1.859v-12.935h-1.94zM78.902 1.172l-5.538 22.474h-1.819l5.517-22.474h1.839zM80.894 16.957v-1.395l7.094-9.822h2.203v9.62h2.021v1.597h-2.021v3.254h-1.819v-3.254h-7.478zM88.453 7.66l-5.437 7.7h5.437v-7.7zM94.049 12.753c0-2.317 0.377-4.123 1.132-5.416 0.755-1.307 2.075-1.96 3.961-1.96 1.873 0 3.187 0.653 3.941 1.96 0.755 1.293 1.132 3.099 1.132 5.416 0 2.358-0.377 4.19-1.132 5.497s-2.068 1.96-3.941 1.96c-1.886 0-3.207-0.653-3.961-1.96s-1.132-3.139-1.132-5.497zM102.396 12.753c0-1.172-0.081-2.163-0.243-2.971-0.148-0.822-0.465-1.482-0.95-1.981-0.472-0.499-1.159-0.748-2.061-0.748-0.916 0-1.617 0.249-2.102 0.748-0.472 0.499-0.788 1.159-0.95 1.981-0.148 0.808-0.222 1.799-0.222 2.971 0 1.213 0.074 2.23 0.222 3.052 0.162 0.822 0.478 1.482 0.95 1.981 0.485 0.499 1.186 0.748 2.102 0.748 0.903 0 1.59-0.249 2.061-0.748 0.485-0.499 0.802-1.159 0.95-1.981 0.162-0.822 0.243-1.839 0.243-3.052zM106.74 12.753c0-2.317 0.377-4.123 1.132-5.416 0.755-1.307 2.075-1.96 3.961-1.96 1.873 0 3.187 0.653 3.941 1.96 0.755 1.293 1.132 3.099 1.132 5.416 0 2.358-0.377 4.19-1.132 5.497s-2.068 1.96-3.941 1.96c-1.886 0-3.207-0.653-3.961-1.96s-1.132-3.139-1.132-5.497zM115.087 12.753c0-1.172-0.081-2.163-0.243-2.971-0.148-0.822-0.465-1.482-0.95-1.981-0.472-0.499-1.159-0.748-2.061-0.748-0.916 0-1.617 0.249-2.102 0.748-0.472 0.499-0.788 1.159-0.95 1.981-0.148 0.808-0.222 1.799-0.222 2.971 0 1.213 0.074 2.23 0.222 3.052 0.162 0.822 0.478 1.482 0.95 1.981 0.485 0.499 1.186 0.748 2.102 0.748 0.903 0 1.59-0.249 2.061-0.748 0.485-0.499 0.802-1.159 0.95-1.981 0.162-0.822 0.243-1.839 0.243-3.052zM123.655 20.392c-0.849 0-1.61-0.141-2.284-0.424-0.674-0.296-1.206-0.701-1.597-1.213-0.391-0.525-0.606-1.125-0.647-1.799h1.9c0.054 0.552 0.31 1.004 0.768 1.354 0.472 0.35 1.085 0.525 1.839 0.525 0.701 0 1.253-0.155 1.657-0.465s0.606-0.701 0.606-1.172c0-0.485-0.216-0.842-0.647-1.071-0.431-0.243-1.098-0.478-2.001-0.707-0.822-0.216-1.496-0.431-2.021-0.647-0.512-0.229-0.957-0.559-1.334-0.99-0.364-0.445-0.546-1.024-0.546-1.738 0-0.566 0.168-1.085 0.505-1.556s0.815-0.842 1.435-1.112c0.62-0.283 1.327-0.424 2.122-0.424 1.226 0 2.216 0.31 2.971 0.93s1.159 1.469 1.213 2.547h-1.839c-0.040-0.579-0.276-1.044-0.707-1.395-0.418-0.35-0.984-0.525-1.698-0.525-0.66 0-1.186 0.141-1.576 0.424s-0.586 0.653-0.586 1.112c0 0.364 0.115 0.667 0.344 0.909 0.243 0.229 0.539 0.418 0.889 0.566 0.364 0.135 0.862 0.29 1.496 0.465 0.795 0.216 1.442 0.431 1.94 0.647 0.499 0.202 0.923 0.512 1.273 0.93 0.364 0.418 0.552 0.963 0.566 1.637 0 0.606-0.168 1.152-0.505 1.637s-0.815 0.869-1.435 1.152c-0.606 0.269-1.307 0.404-2.102 0.404z"></path>
<path fill="#fff" style="fill: var(--color2, #fff)" d="M167.814 22.898l12.436 7.226c-1.992 1.198-4.305 1.876-6.776 1.876-2.033 0-3.946-0.439-5.66-1.277v-7.825zM166.816 15.831v14.372c-3.747-2.076-6.338-5.948-6.736-10.46l6.736-3.912zM186.947 18.426v0.12c0 4.551-2.272 8.583-5.74 10.979l-6.737-3.872 12.477-7.226zM180.131 6.849c3.747 2.076 6.338 5.948 6.737 10.459l-6.737 3.912v-14.372zM165.74 7.528l6.737 3.872-12.477 7.186v-0.040c0-4.591 2.272-8.623 5.74-11.019zM173.474 5.053c2.035 0 3.948 0.439 5.661 1.277v7.785l-12.436-7.226c1.992-1.158 4.305-1.836 6.776-1.836z"></path>
<path fill="#fff" style="fill: var(--color2, #fff)" d="M203.116 10.651h-2.324v9.56h-1.839v-9.56h-1.435v-1.516h1.435v-0.788c0-1.24 0.317-2.142 0.95-2.708 0.647-0.579 1.677-0.869 3.092-0.869v1.536c-0.808 0-1.381 0.162-1.718 0.485-0.323 0.31-0.485 0.829-0.485 1.556v0.788h2.324v1.516zM212.131 1.172l-5.538 22.474h-1.819l5.517-22.474h1.839zM214.528 9.277c0.094-1.24 0.573-2.21 1.435-2.91s1.981-1.051 3.355-1.051c0.916 0 1.704 0.168 2.365 0.505 0.674 0.323 1.179 0.768 1.516 1.334 0.35 0.566 0.525 1.206 0.525 1.92 0 0.835-0.243 1.556-0.728 2.163-0.472 0.606-1.091 0.997-1.859 1.172v0.101c0.876 0.216 1.57 0.64 2.082 1.273s0.768 1.462 0.768 2.486c0 0.768-0.175 1.462-0.525 2.082-0.35 0.606-0.876 1.085-1.576 1.435s-1.543 0.525-2.526 0.525c-1.428 0-2.6-0.371-3.517-1.112-0.916-0.755-1.428-1.819-1.536-3.193h1.779c0.094 0.808 0.424 1.469 0.99 1.981s1.32 0.768 2.264 0.768c0.943 0 1.657-0.243 2.142-0.728 0.499-0.499 0.748-1.139 0.748-1.92 0-1.011-0.337-1.738-1.011-2.183s-1.691-0.667-3.052-0.667h-0.465v-1.536h0.485c1.24-0.013 2.176-0.216 2.809-0.606 0.633-0.404 0.95-1.024 0.95-1.859 0-0.714-0.236-1.287-0.707-1.718-0.458-0.431-1.118-0.647-1.981-0.647-0.835 0-1.509 0.216-2.021 0.647s-0.815 1.011-0.909 1.738h-1.799zM228.674 17.664l-2.264 5.437h-1.233l1.475-5.437h2.021zM239.795 7.195h-7.094v4.608c0.31-0.431 0.768-0.781 1.374-1.051 0.606-0.283 1.26-0.424 1.96-0.424 1.118 0 2.028 0.236 2.728 0.707 0.701 0.458 1.199 1.058 1.496 1.799 0.31 0.728 0.465 1.502 0.465 2.324 0 0.97-0.182 1.839-0.546 2.607s-0.923 1.374-1.677 1.819c-0.741 0.445-1.664 0.667-2.769 0.667-1.415 0-2.56-0.364-3.436-1.091s-1.408-1.698-1.597-2.91h1.799c0.175 0.768 0.546 1.368 1.112 1.799s1.28 0.647 2.142 0.647c1.064 0 1.866-0.317 2.405-0.95 0.539-0.647 0.808-1.496 0.808-2.547s-0.269-1.859-0.808-2.425c-0.539-0.579-1.334-0.869-2.385-0.869-0.714 0-1.341 0.175-1.88 0.525-0.525 0.337-0.909 0.802-1.152 1.395h-1.738v-8.246h8.792v1.617z"></path>
<path fill="#fff" style="fill: var(--color2, #fff)" d="M318.146 5.053c2.885 0 5.223 2.356 5.223 5.263v16.421c0 2.907-2.338 5.263-5.223 5.263h-43.449c-2.885 0-5.223-2.356-5.223-5.263v-16.421c0-2.907 2.338-5.263 5.223-5.263h43.449zM290.88 9.955c-1.144 0-2.159 0.196-3.048 0.588s-1.58 0.956-2.072 1.692c-0.492 0.736-0.738 1.6-0.738 2.592 0 1.056 0.241 1.9 0.726 2.532 0.483 0.632 1.063 1.104 1.738 1.416s1.551 0.628 2.631 0.948c0.795 0.224 1.418 0.428 1.869 0.612 0.453 0.184 0.83 0.436 1.132 0.756s0.453 0.728 0.453 1.224c0 0.608-0.222 1.1-0.667 1.476s-1.056 0.564-1.834 0.564c-0.761 0-1.361-0.2-1.797-0.6-0.419-0.384-0.66-0.901-0.721-1.55l-0.007-0.082h-3.572l0.003 0.109c0.034 0.978 0.31 1.83 0.83 2.555 0.541 0.752 1.275 1.328 2.203 1.728 0.93 0.4 1.972 0.6 3.131 0.6 1.223 0 2.279-0.228 3.168-0.684s1.565-1.068 2.024-1.836 0.691-1.6 0.691-2.496c0-1.040-0.246-1.88-0.738-2.52-0.493-0.64-1.080-1.12-1.763-1.44-0.682-0.32-1.563-0.64-2.643-0.96-0.795-0.24-1.41-0.452-1.846-0.636s-0.802-0.424-1.095-0.72c-0.295-0.296-0.441-0.668-0.441-1.116 0-0.64 0.194-1.128 0.583-1.464s0.909-0.504 1.561-0.504c0.746 0 1.344 0.188 1.797 0.564 0.435 0.36 0.674 0.813 0.721 1.357l0.005 0.071h3.668l-0.008-0.102c-0.13-1.455-0.719-2.593-1.767-3.414-1.071-0.84-2.464-1.26-4.179-1.26zM308.874 9.955c-1.556 0-2.984 0.368-4.286 1.104s-2.334 1.756-3.096 3.060c-0.761 1.304-1.144 2.772-1.144 4.404 0 1.648 0.382 3.124 1.144 4.428s1.794 2.324 3.096 3.060c1.302 0.736 2.73 1.104 4.286 1.104s2.984-0.368 4.286-1.104c1.302-0.736 2.331-1.756 3.084-3.060 0.755-1.304 1.132-2.78 1.132-4.428 0-1.632-0.377-3.1-1.132-4.404-0.753-1.304-1.777-2.324-3.072-3.060-1.293-0.736-2.727-1.104-4.298-1.104zM280.862 10.195h-3.333v16.752h3.333v-16.752zM308.874 12.979c1 0 1.881 0.224 2.644 0.672 0.761 0.448 1.357 1.092 1.785 1.932 0.429 0.84 0.643 1.82 0.643 2.94s-0.214 2.104-0.643 2.952c-0.428 0.848-1.024 1.5-1.785 1.956-0.763 0.456-1.644 0.684-2.644 0.684s-1.885-0.228-2.654-0.684c-0.771-0.456-1.369-1.108-1.799-1.956-0.428-0.848-0.643-1.832-0.643-2.952s0.216-2.1 0.643-2.94c0.429-0.84 1.027-1.484 1.799-1.932 0.77-0.448 1.654-0.672 2.654-0.672z"></path>
<path fill="#fff" style="fill: var(--color2, #fff)" d="M335.926 7.276v-1.677h3.8v14.612h-1.859v-12.935h-1.94zM342.885 12.753c0-2.317 0.377-4.123 1.132-5.416 0.755-1.307 2.075-1.96 3.961-1.96 1.873 0 3.187 0.653 3.941 1.96 0.755 1.293 1.132 3.099 1.132 5.416 0 2.358-0.377 4.19-1.132 5.497s-2.068 1.96-3.941 1.96c-1.886 0-3.207-0.653-3.961-1.96s-1.132-3.139-1.132-5.497zM351.232 12.753c0-1.172-0.081-2.163-0.243-2.971-0.148-0.822-0.465-1.482-0.95-1.981-0.472-0.499-1.159-0.748-2.061-0.748-0.916 0-1.617 0.249-2.102 0.748-0.472 0.499-0.788 1.159-0.95 1.981-0.148 0.808-0.222 1.799-0.222 2.971 0 1.213 0.074 2.23 0.222 3.052 0.162 0.822 0.478 1.482 0.95 1.981 0.485 0.499 1.186 0.748 2.102 0.748 0.903 0 1.59-0.249 2.061-0.748 0.485-0.499 0.802-1.159 0.95-1.981 0.162-0.822 0.243-1.839 0.243-3.052zM355.576 12.753c0-2.317 0.377-4.123 1.132-5.416 0.755-1.307 2.075-1.96 3.961-1.96 1.873 0 3.187 0.653 3.941 1.96 0.755 1.293 1.132 3.099 1.132 5.416 0 2.358-0.377 4.19-1.132 5.497s-2.068 1.96-3.941 1.96c-1.886 0-3.207-0.653-3.961-1.96s-1.132-3.139-1.132-5.497zM363.923 12.753c0-1.172-0.081-2.163-0.243-2.971-0.148-0.822-0.465-1.482-0.95-1.981-0.472-0.499-1.159-0.748-2.061-0.748-0.916 0-1.617 0.249-2.102 0.748-0.472 0.499-0.788 1.159-0.95 1.981-0.148 0.808-0.222 1.799-0.222 2.971 0 1.213 0.074 2.23 0.222 3.052 0.162 0.822 0.478 1.482 0.95 1.981 0.485 0.499 1.186 0.748 2.102 0.748 0.903 0 1.59-0.249 2.061-0.748 0.485-0.499 0.802-1.159 0.95-1.981 0.162-0.822 0.243-1.839 0.243-3.052z"></path>
<path fill="#fff" style="fill: var(--color2, #fff)" d="M404.211 15.907c-1.62 0-2.931-1.253-2.931-2.802 0-1.546 1.31-2.799 2.931-2.799 1.617 0 2.927 1.253 2.927 2.799 0 1.549-1.31 2.802-2.927 2.802zM404.211 5.053c-4.65 0-8.421 3.605-8.421 8.052 0 3.246 4.478 12.952 6.904 17.969 0.596 1.236 2.434 1.236 3.035 0 2.422-5.017 6.904-14.723 6.904-17.969 0-4.446-3.771-8.052-8.421-8.052z"></path>
<path fill="#fff" style="fill: var(--color2, #fff)" d="M421.922 13.157c0-1.374 0.31-2.607 0.93-3.699 0.62-1.105 1.462-1.967 2.526-2.587 1.078-0.62 2.27-0.93 3.577-0.93 1.536 0 2.877 0.371 4.022 1.112s1.981 1.792 2.506 3.153h-2.203c-0.391-0.849-0.957-1.502-1.698-1.96-0.728-0.458-1.603-0.687-2.627-0.687-0.984 0-1.866 0.229-2.648 0.687s-1.395 1.112-1.839 1.96c-0.445 0.835-0.667 1.819-0.667 2.951 0 1.118 0.222 2.102 0.667 2.951 0.445 0.835 1.058 1.482 1.839 1.94s1.664 0.687 2.648 0.687c1.024 0 1.9-0.222 2.627-0.667 0.741-0.458 1.307-1.112 1.698-1.96h2.203c-0.525 1.347-1.361 2.392-2.506 3.133-1.145 0.728-2.486 1.091-4.022 1.091-1.307 0-2.499-0.303-3.577-0.909-1.064-0.62-1.907-1.475-2.526-2.567s-0.93-2.324-0.93-3.699zM443.052 20.392c-1.037 0-1.981-0.236-2.829-0.707-0.835-0.472-1.496-1.139-1.981-2.001-0.472-0.876-0.707-1.886-0.707-3.032 0-1.132 0.243-2.129 0.728-2.991 0.499-0.876 1.172-1.543 2.021-2.001 0.849-0.472 1.799-0.707 2.85-0.707s2.001 0.236 2.85 0.707c0.849 0.458 1.516 1.118 2.001 1.981 0.499 0.862 0.748 1.866 0.748 3.011s-0.256 2.156-0.768 3.032c-0.499 0.862-1.179 1.529-2.041 2.001s-1.819 0.707-2.87 0.707zM443.052 18.776c0.66 0 1.28-0.155 1.859-0.465s1.044-0.775 1.395-1.395c0.364-0.62 0.546-1.374 0.546-2.264s-0.175-1.644-0.525-2.264c-0.35-0.62-0.808-1.078-1.374-1.374-0.566-0.31-1.179-0.465-1.839-0.465-0.674 0-1.293 0.155-1.859 0.465-0.552 0.296-0.997 0.755-1.334 1.374s-0.505 1.374-0.505 2.264c0 0.903 0.162 1.664 0.485 2.284 0.337 0.62 0.781 1.085 1.334 1.395 0.552 0.296 1.159 0.445 1.819 0.445zM455.069 20.392c-0.849 0-1.61-0.141-2.284-0.424-0.674-0.296-1.206-0.701-1.597-1.213-0.391-0.525-0.606-1.125-0.647-1.799h1.9c0.054 0.552 0.31 1.004 0.768 1.354 0.472 0.35 1.085 0.525 1.839 0.525 0.701 0 1.253-0.155 1.657-0.465s0.606-0.701 0.606-1.172c0-0.485-0.216-0.842-0.647-1.071-0.431-0.243-1.098-0.478-2.001-0.707-0.822-0.216-1.496-0.431-2.021-0.647-0.512-0.229-0.957-0.559-1.334-0.99-0.364-0.445-0.546-1.024-0.546-1.738 0-0.566 0.168-1.085 0.505-1.556s0.815-0.842 1.435-1.112c0.62-0.283 1.327-0.424 2.122-0.424 1.226 0 2.216 0.31 2.971 0.93s1.159 1.469 1.213 2.547h-1.839c-0.040-0.579-0.276-1.044-0.707-1.395-0.418-0.35-0.984-0.525-1.698-0.525-0.66 0-1.186 0.141-1.576 0.424s-0.586 0.653-0.586 1.112c0 0.364 0.115 0.667 0.344 0.909 0.243 0.229 0.539 0.418 0.889 0.566 0.364 0.135 0.862 0.29 1.496 0.465 0.795 0.216 1.442 0.431 1.94 0.647 0.499 0.202 0.923 0.512 1.273 0.93 0.364 0.418 0.552 0.963 0.566 1.637 0 0.606-0.168 1.152-0.505 1.637s-0.815 0.869-1.435 1.152c-0.606 0.269-1.307 0.404-2.102 0.404zM463.951 10.651v6.528c0 0.539 0.115 0.923 0.344 1.152 0.229 0.216 0.627 0.323 1.192 0.323h1.354v1.556h-1.657c-1.024 0-1.792-0.236-2.304-0.707s-0.768-1.246-0.768-2.324v-6.528h-1.435v-1.516h1.435v-2.789h1.839v2.789h2.89v1.516h-2.89zM468.382 14.632c0-1.132 0.229-2.122 0.687-2.971 0.458-0.862 1.085-1.529 1.88-2.001 0.808-0.472 1.704-0.707 2.688-0.707 0.97 0 1.812 0.209 2.526 0.627s1.246 0.943 1.597 1.576v-2.021h1.859v11.075h-1.859v-2.061c-0.364 0.647-0.909 1.186-1.637 1.617-0.714 0.418-1.549 0.627-2.506 0.627-0.984 0-1.873-0.243-2.668-0.728s-1.421-1.165-1.88-2.041c-0.458-0.876-0.687-1.873-0.687-2.991zM477.76 14.653c0-0.835-0.168-1.563-0.505-2.183s-0.795-1.091-1.374-1.415c-0.566-0.337-1.192-0.505-1.88-0.505s-1.314 0.162-1.88 0.485c-0.566 0.323-1.017 0.795-1.354 1.415s-0.505 1.347-0.505 2.183c0 0.849 0.168 1.59 0.505 2.223 0.337 0.62 0.788 1.098 1.354 1.435 0.566 0.323 1.192 0.485 1.88 0.485s1.314-0.162 1.88-0.485c0.579-0.337 1.037-0.815 1.374-1.435 0.337-0.633 0.505-1.368 0.505-2.203zM495.533 20.211l-3.355-5.76h-2.223v5.76h-1.839v-14.087h4.547c1.064 0 1.96 0.182 2.688 0.546 0.741 0.364 1.293 0.856 1.657 1.475s0.546 1.327 0.546 2.122c0 0.97-0.283 1.826-0.849 2.567-0.552 0.741-1.388 1.233-2.506 1.475l3.537 5.901h-2.203zM489.955 12.975h2.708c0.997 0 1.745-0.243 2.243-0.728 0.499-0.499 0.748-1.159 0.748-1.981 0-0.835-0.249-1.482-0.748-1.94-0.485-0.458-1.233-0.687-2.243-0.687h-2.708v5.336zM501.361 7.336c-0.35 0-0.647-0.121-0.889-0.364s-0.364-0.539-0.364-0.889c0-0.35 0.121-0.647 0.364-0.889s0.539-0.364 0.889-0.364c0.337 0 0.62 0.121 0.849 0.364 0.243 0.243 0.364 0.539 0.364 0.889s-0.121 0.647-0.364 0.889c-0.229 0.243-0.512 0.364-0.849 0.364zM502.25 9.135v11.075h-1.839v-11.075h1.839zM504.697 14.653c0-1.145 0.229-2.142 0.687-2.991 0.458-0.862 1.091-1.529 1.9-2.001 0.822-0.472 1.758-0.707 2.809-0.707 1.361 0 2.479 0.33 3.355 0.99 0.889 0.66 1.475 1.576 1.758 2.749h-1.981c-0.189-0.674-0.559-1.206-1.112-1.597-0.539-0.391-1.213-0.586-2.021-0.586-1.051 0-1.9 0.364-2.547 1.091-0.647 0.714-0.97 1.731-0.97 3.052 0 1.334 0.323 2.365 0.97 3.092s1.496 1.091 2.547 1.091c0.808 0 1.482-0.189 2.021-0.566s0.909-0.916 1.112-1.617h1.981c-0.296 1.132-0.889 2.041-1.779 2.728-0.889 0.674-2.001 1.011-3.335 1.011-1.051 0-1.987-0.236-2.809-0.707-0.808-0.472-1.442-1.139-1.9-2.001s-0.687-1.873-0.687-3.032zM516.975 14.632c0-1.132 0.229-2.122 0.687-2.971 0.458-0.862 1.085-1.529 1.88-2.001 0.808-0.472 1.704-0.707 2.688-0.707 0.97 0 1.812 0.209 2.526 0.627s1.246 0.943 1.597 1.576v-2.021h1.859v11.075h-1.859v-2.061c-0.364 0.647-0.909 1.186-1.637 1.617-0.714 0.418-1.549 0.627-2.506 0.627-0.984 0-1.873-0.243-2.668-0.728s-1.421-1.165-1.88-2.041c-0.458-0.876-0.687-1.873-0.687-2.991zM526.353 14.653c0-0.835-0.168-1.563-0.505-2.183s-0.795-1.091-1.374-1.415c-0.566-0.337-1.192-0.505-1.88-0.505s-1.314 0.162-1.88 0.485c-0.566 0.323-1.017 0.795-1.354 1.415s-0.505 1.347-0.505 2.183c0 0.849 0.168 1.59 0.505 2.223 0.337 0.62 0.788 1.098 1.354 1.435 0.566 0.323 1.192 0.485 1.88 0.485s1.314-0.162 1.88-0.485c0.579-0.337 1.037-0.815 1.374-1.435 0.337-0.633 0.505-1.368 0.505-2.203z"></path>
</symbol>
<symbol id="icon-Frame-3" viewBox="0 0 475 32">
<path fill="#fff" style="fill: var(--color2, #fff)" d="M135.814 22.898l12.436 7.226c-1.993 1.198-4.305 1.876-6.776 1.876-2.033 0-3.946-0.439-5.66-1.277v-7.825zM134.816 15.831v14.372c-3.747-2.076-6.338-5.948-6.736-10.46l6.736-3.912zM154.947 18.426v0.12c0 4.551-2.272 8.583-5.74 10.979l-6.736-3.872 12.476-7.226zM148.131 6.849c3.747 2.076 6.338 5.948 6.737 10.459l-6.737 3.912v-14.372zM133.74 7.528l6.736 3.872-12.476 7.186v-0.040c0-4.591 2.272-8.623 5.74-11.019zM141.475 5.053c2.033 0 3.946 0.439 5.66 1.277v7.785l-12.437-7.226c1.993-1.158 4.305-1.836 6.776-1.836z"></path>
<path fill="#fff" style="fill: var(--color2, #fff)" d="M171.116 10.651h-2.324v9.56h-1.839v-9.56h-1.435v-1.516h1.435v-0.788c0-1.24 0.317-2.142 0.95-2.708 0.647-0.579 1.677-0.869 3.092-0.869v1.536c-0.808 0-1.381 0.162-1.718 0.485-0.323 0.31-0.485 0.829-0.485 1.556v0.788h2.324v1.516zM180.131 1.172l-5.538 22.474h-1.819l5.517-22.474h1.839zM191.885 7.195h-7.094v4.608c0.31-0.431 0.768-0.781 1.374-1.051 0.606-0.283 1.26-0.424 1.96-0.424 1.118 0 2.028 0.236 2.728 0.707 0.701 0.458 1.199 1.058 1.496 1.799 0.31 0.728 0.465 1.502 0.465 2.324 0 0.97-0.182 1.839-0.546 2.607s-0.923 1.374-1.677 1.819c-0.741 0.445-1.664 0.667-2.769 0.667-1.415 0-2.56-0.364-3.436-1.091s-1.408-1.698-1.597-2.91h1.799c0.175 0.768 0.546 1.368 1.112 1.799s1.28 0.647 2.142 0.647c1.064 0 1.866-0.317 2.405-0.95 0.539-0.647 0.808-1.496 0.808-2.547s-0.269-1.859-0.808-2.425c-0.539-0.579-1.334-0.869-2.385-0.869-0.714 0-1.341 0.175-1.88 0.525-0.525 0.337-0.909 0.802-1.152 1.395h-1.738v-8.246h8.792v1.617zM197.462 17.664l-2.264 5.437h-1.233l1.475-5.437h2.021zM207.411 9.075c-0.296-1.496-1.219-2.243-2.769-2.243-1.199 0-2.095 0.465-2.688 1.395-0.593 0.916-0.883 2.432-0.869 4.547 0.31-0.701 0.822-1.246 1.536-1.637 0.728-0.404 1.536-0.606 2.425-0.606 1.388 0 2.493 0.431 3.315 1.293 0.835 0.862 1.253 2.055 1.253 3.577 0 0.916-0.182 1.738-0.546 2.466-0.35 0.728-0.889 1.307-1.617 1.738-0.714 0.431-1.583 0.647-2.607 0.647-1.388 0-2.472-0.31-3.254-0.93s-1.327-1.475-1.637-2.567c-0.31-1.091-0.465-2.439-0.465-4.042 0-4.945 1.725-7.417 5.174-7.417 1.32 0 2.358 0.357 3.112 1.071s1.199 1.617 1.334 2.708h-1.698zM204.662 12.086c-0.579 0-1.125 0.121-1.637 0.364-0.512 0.229-0.93 0.586-1.253 1.071-0.31 0.472-0.465 1.051-0.465 1.738 0 1.024 0.296 1.859 0.889 2.506 0.593 0.633 1.442 0.95 2.547 0.95 0.943 0 1.691-0.29 2.243-0.869 0.566-0.593 0.849-1.388 0.849-2.385 0-1.051-0.269-1.873-0.808-2.466-0.539-0.606-1.327-0.909-2.365-0.909z"></path>
<path fill="#fff" style="fill: var(--color2, #fff)" d="M373.895 15.907c-1.62 0-2.931-1.253-2.931-2.802 0-1.546 1.31-2.799 2.931-2.799 1.617 0 2.927 1.253 2.927 2.799 0 1.549-1.31 2.802-2.927 2.802zM373.895 5.053c-4.65 0-8.421 3.605-8.421 8.052 0 3.246 4.478 12.952 6.904 17.969 0.596 1.236 2.434 1.236 3.035 0 2.422-5.017 6.904-14.723 6.904-17.969 0-4.446-3.771-8.052-8.421-8.052z"></path>
<path fill="#fff" style="fill: var(--color2, #fff)" d="M396.76 20.352c-0.93 0-1.765-0.162-2.506-0.485-0.728-0.337-1.3-0.795-1.718-1.374-0.418-0.593-0.633-1.273-0.647-2.041h1.96c0.067 0.66 0.337 1.219 0.808 1.677 0.485 0.445 1.186 0.667 2.102 0.667 0.876 0 1.563-0.216 2.061-0.647 0.512-0.445 0.768-1.011 0.768-1.698 0-0.539-0.148-0.977-0.445-1.314s-0.667-0.593-1.112-0.768c-0.445-0.175-1.044-0.364-1.799-0.566-0.93-0.243-1.677-0.485-2.243-0.728-0.552-0.243-1.031-0.62-1.435-1.132-0.391-0.525-0.586-1.226-0.586-2.102 0-0.768 0.195-1.448 0.586-2.041s0.936-1.051 1.637-1.374c0.714-0.323 1.529-0.485 2.445-0.485 1.32 0 2.398 0.33 3.234 0.99 0.849 0.66 1.327 1.536 1.435 2.627h-2.021c-0.067-0.539-0.35-1.011-0.849-1.415-0.499-0.418-1.159-0.627-1.981-0.627-0.768 0-1.395 0.202-1.88 0.606-0.485 0.391-0.728 0.943-0.728 1.657 0 0.512 0.141 0.93 0.424 1.253 0.296 0.323 0.653 0.573 1.071 0.748 0.431 0.162 1.031 0.35 1.799 0.566 0.93 0.256 1.677 0.512 2.243 0.768 0.566 0.243 1.051 0.627 1.455 1.152 0.404 0.512 0.606 1.213 0.606 2.102 0 0.687-0.182 1.334-0.546 1.94s-0.903 1.098-1.617 1.475c-0.714 0.377-1.556 0.566-2.526 0.566zM418.909 9.135l-3.456 11.075h-1.9l-2.668-8.792-2.668 8.792h-1.9l-3.476-11.075h1.88l2.547 9.297 2.749-9.297h1.88l2.688 9.317 2.506-9.317h1.819zM430.84 14.248c0 0.35-0.020 0.721-0.061 1.112h-8.852c0.067 1.091 0.438 1.947 1.112 2.567 0.687 0.606 1.516 0.909 2.486 0.909 0.795 0 1.455-0.182 1.981-0.546 0.539-0.377 0.916-0.876 1.132-1.496h1.981c-0.296 1.064-0.889 1.933-1.779 2.607-0.889 0.66-1.994 0.99-3.315 0.99-1.051 0-1.994-0.236-2.829-0.707-0.822-0.472-1.469-1.139-1.94-2.001-0.472-0.876-0.707-1.886-0.707-3.032s0.229-2.149 0.687-3.011c0.458-0.862 1.098-1.523 1.92-1.981 0.835-0.472 1.792-0.707 2.87-0.707 1.051 0 1.981 0.229 2.789 0.687s1.428 1.091 1.859 1.9c0.445 0.795 0.667 1.698 0.667 2.708zM428.94 13.864c0-0.701-0.155-1.3-0.465-1.799-0.31-0.512-0.734-0.896-1.273-1.152-0.525-0.269-1.112-0.404-1.758-0.404-0.93 0-1.725 0.296-2.385 0.889-0.647 0.593-1.017 1.415-1.112 2.466h6.993zM432.579 14.632c0-1.132 0.229-2.122 0.687-2.971 0.458-0.862 1.085-1.529 1.88-2.001 0.808-0.472 1.711-0.707 2.708-0.707 0.862 0 1.664 0.202 2.405 0.606 0.741 0.391 1.307 0.909 1.698 1.556v-5.861h1.859v14.956h-1.859v-2.082c-0.364 0.66-0.903 1.206-1.617 1.637-0.714 0.418-1.549 0.627-2.506 0.627-0.984 0-1.88-0.243-2.688-0.728-0.795-0.485-1.421-1.165-1.88-2.041s-0.687-1.873-0.687-2.991zM441.957 14.653c0-0.835-0.168-1.563-0.505-2.183s-0.795-1.091-1.374-1.415c-0.566-0.337-1.192-0.505-1.88-0.505s-1.314 0.162-1.88 0.485c-0.566 0.323-1.017 0.795-1.354 1.415s-0.505 1.347-0.505 2.183c0 0.849 0.168 1.59 0.505 2.223 0.337 0.62 0.788 1.098 1.354 1.435 0.566 0.323 1.192 0.485 1.88 0.485s1.314-0.162 1.88-0.485c0.579-0.337 1.037-0.815 1.374-1.435 0.337-0.633 0.505-1.368 0.505-2.203zM457.031 14.248c0 0.35-0.020 0.721-0.061 1.112h-8.852c0.067 1.091 0.438 1.947 1.112 2.567 0.687 0.606 1.516 0.909 2.486 0.909 0.795 0 1.455-0.182 1.981-0.546 0.539-0.377 0.916-0.876 1.132-1.496h1.981c-0.296 1.064-0.889 1.933-1.779 2.607-0.889 0.66-1.994 0.99-3.315 0.99-1.051 0-1.994-0.236-2.829-0.707-0.822-0.472-1.469-1.139-1.94-2.001-0.472-0.876-0.707-1.886-0.707-3.032s0.229-2.149 0.687-3.011c0.458-0.862 1.098-1.523 1.92-1.981 0.835-0.472 1.792-0.707 2.87-0.707 1.051 0 1.981 0.229 2.789 0.687s1.428 1.091 1.859 1.9c0.445 0.795 0.667 1.698 0.667 2.708zM455.131 13.864c0-0.701-0.155-1.3-0.465-1.799-0.31-0.512-0.734-0.896-1.273-1.152-0.525-0.269-1.112-0.404-1.758-0.404-0.93 0-1.725 0.296-2.385 0.889-0.647 0.593-1.017 1.415-1.112 2.466h6.993zM464.854 8.933c1.347 0 2.439 0.411 3.274 1.233 0.835 0.808 1.253 1.981 1.253 3.517v6.528h-1.819v-6.265c0-1.105-0.276-1.947-0.829-2.526-0.552-0.593-1.307-0.889-2.264-0.889-0.97 0-1.745 0.303-2.324 0.909-0.566 0.606-0.849 1.489-0.849 2.648v6.124h-1.839v-11.075h1.839v1.576c0.364-0.566 0.856-1.004 1.475-1.314 0.633-0.31 1.327-0.465 2.082-0.465z"></path>
<path fill="#fff" style="fill: var(--color2, #fff)" d="M41.049 5.053c0.109 0 0.197 0.088 0.197 0.197v0.206c0 0.109-0.088 0.197-0.197 0.197h-0.226v0.664c6.906 0.212 12.44 5.878 12.44 12.838 0 7.095-5.749 12.845-12.841 12.845s-12.843-5.751-12.843-12.845c0-6.959 5.534-12.625 12.44-12.837v-0.664h-0.226c-0.109 0-0.197-0.088-0.197-0.197v-0.206c0-0.109 0.088-0.197 0.197-0.197h1.256zM40.743 8.001v1.127c0 0.178-0.144 0.322-0.322 0.322s-0.322-0.144-0.322-0.322v-1.127c-5.907 0.168-10.662 4.924-10.83 10.832h1.127c0.178 0 0.322 0.144 0.322 0.322s-0.144 0.322-0.322 0.322h-1.127c0.168 5.908 4.923 10.664 10.83 10.832v-1.127c0-0.178 0.144-0.322 0.322-0.322s0.322 0.144 0.322 0.322v1.127c5.907-0.167 10.662-4.924 10.83-10.832h-1.127c-0.178 0-0.322-0.144-0.322-0.322s0.144-0.322 0.322-0.322h1.127c-0.167-5.909-4.922-10.665-10.83-10.832zM40.421 18.555c0.331 0 0.6 0.269 0.6 0.6 0 0.034-0.005 0.067-0.010 0.1l3.816 3.452c0.098 0.089 0.169 0.203 0.204 0.331l0.052 0.187c0.025 0.091-0.053 0.178-0.146 0.162l-0.192-0.033c-0.13-0.022-0.251-0.081-0.349-0.17l-3.817-3.452c-0.051 0.014-0.103 0.024-0.158 0.024-0.331 0-0.6-0.269-0.6-0.6s0.269-0.6 0.6-0.6z"></path>
<path fill="#fff" style="fill: var(--color2, #fff)" d="M65.253 12.753c0-2.317 0.377-4.123 1.132-5.416 0.755-1.307 2.075-1.96 3.961-1.96 1.873 0 3.187 0.653 3.941 1.96 0.755 1.293 1.132 3.099 1.132 5.416 0 2.358-0.377 4.19-1.132 5.497s-2.068 1.96-3.941 1.96c-1.886 0-3.207-0.653-3.961-1.96s-1.132-3.139-1.132-5.497zM73.6 12.753c0-1.172-0.081-2.163-0.243-2.971-0.148-0.822-0.465-1.482-0.95-1.981-0.472-0.499-1.159-0.748-2.061-0.748-0.916 0-1.617 0.249-2.102 0.748-0.472 0.499-0.788 1.159-0.95 1.981-0.148 0.808-0.222 1.799-0.222 2.971 0 1.213 0.074 2.23 0.222 3.052 0.162 0.822 0.478 1.482 0.95 1.981 0.485 0.499 1.186 0.748 2.102 0.748 0.903 0 1.59-0.249 2.061-0.748 0.485-0.499 0.802-1.159 0.95-1.981 0.162-0.822 0.243-1.839 0.243-3.052zM80.147 17.664l-2.264 5.437h-1.233l1.475-5.437h2.021zM84.618 12.611c-0.755-0.296-1.334-0.728-1.738-1.293s-0.606-1.253-0.606-2.061c0-0.728 0.182-1.381 0.546-1.96 0.364-0.593 0.903-1.058 1.617-1.395 0.728-0.35 1.603-0.525 2.627-0.525s1.893 0.175 2.607 0.525c0.728 0.337 1.273 0.802 1.637 1.395 0.377 0.579 0.566 1.233 0.566 1.96 0 0.781-0.209 1.469-0.627 2.061-0.418 0.579-0.99 1.011-1.718 1.293 0.835 0.256 1.496 0.707 1.981 1.354 0.499 0.633 0.748 1.401 0.748 2.304 0 0.876-0.216 1.644-0.647 2.304-0.431 0.647-1.044 1.152-1.839 1.516-0.781 0.35-1.684 0.525-2.708 0.525s-1.927-0.175-2.708-0.525c-0.768-0.364-1.368-0.869-1.799-1.516-0.431-0.66-0.647-1.428-0.647-2.304 0-0.903 0.243-1.677 0.728-2.324s1.145-1.091 1.981-1.334zM90.095 9.479c0-0.822-0.269-1.455-0.808-1.9s-1.28-0.667-2.223-0.667c-0.93 0-1.664 0.222-2.203 0.667s-0.808 1.085-0.808 1.92c0 0.755 0.276 1.361 0.829 1.819 0.566 0.458 1.293 0.687 2.183 0.687 0.903 0 1.63-0.229 2.183-0.687 0.566-0.472 0.849-1.085 0.849-1.839zM87.064 13.42c-0.997 0-1.812 0.236-2.445 0.707-0.633 0.458-0.95 1.152-0.95 2.082 0 0.862 0.303 1.556 0.909 2.082 0.62 0.525 1.448 0.788 2.486 0.788s1.859-0.263 2.466-0.788c0.606-0.525 0.909-1.219 0.909-2.082 0-0.903-0.31-1.59-0.93-2.061-0.62-0.485-1.435-0.728-2.445-0.728zM95.933 4.123l-0.243 4.022h-1.273l-0.263-4.022h1.779zM99.15 4.123l-0.243 4.022h-1.273l-0.263-4.022h1.779z"></path>
<path fill="#fff" style="fill: var(--color2, #fff)" d="M287.83 5.053c2.885 0 5.223 2.356 5.223 5.263v16.421c0 2.907-2.338 5.263-5.223 5.263h-43.449c-2.885 0-5.223-2.356-5.223-5.263v-16.421c0-2.907 2.338-5.263 5.223-5.263h43.449zM260.564 9.955c-1.144 0-2.159 0.196-3.048 0.588s-1.58 0.956-2.072 1.692c-0.492 0.736-0.738 1.6-0.738 2.592 0 1.056 0.241 1.9 0.726 2.532 0.483 0.632 1.063 1.104 1.738 1.416s1.551 0.628 2.631 0.948c0.795 0.224 1.418 0.428 1.869 0.612 0.453 0.184 0.83 0.436 1.132 0.756s0.453 0.728 0.453 1.224c0 0.608-0.222 1.1-0.667 1.476s-1.056 0.564-1.834 0.564c-0.761 0-1.361-0.2-1.797-0.6-0.419-0.384-0.66-0.901-0.721-1.55l-0.007-0.082h-3.572l0.003 0.109c0.034 0.978 0.31 1.83 0.83 2.555 0.541 0.752 1.275 1.328 2.203 1.728 0.93 0.4 1.972 0.6 3.131 0.6 1.223 0 2.279-0.228 3.168-0.684s1.565-1.068 2.024-1.836 0.691-1.6 0.691-2.496c0-1.040-0.246-1.88-0.738-2.52-0.493-0.64-1.080-1.12-1.763-1.44-0.682-0.32-1.563-0.64-2.643-0.96-0.795-0.24-1.41-0.452-1.846-0.636s-0.802-0.424-1.095-0.72c-0.295-0.296-0.441-0.668-0.441-1.116 0-0.64 0.194-1.128 0.583-1.464s0.909-0.504 1.561-0.504c0.746 0 1.344 0.188 1.797 0.564 0.435 0.36 0.674 0.813 0.721 1.357l0.005 0.071h3.668l-0.008-0.102c-0.13-1.455-0.719-2.593-1.767-3.414-1.071-0.84-2.464-1.26-4.179-1.26zM278.558 9.955c-1.556 0-2.984 0.368-4.286 1.104s-2.334 1.756-3.096 3.060c-0.761 1.304-1.144 2.772-1.144 4.404 0 1.648 0.382 3.124 1.144 4.428s1.794 2.324 3.096 3.060c1.302 0.736 2.73 1.104 4.286 1.104s2.984-0.368 4.286-1.104c1.302-0.736 2.331-1.756 3.084-3.060 0.755-1.304 1.132-2.78 1.132-4.428 0-1.632-0.377-3.1-1.132-4.404-0.753-1.304-1.777-2.324-3.072-3.060-1.293-0.736-2.727-1.104-4.298-1.104zM250.547 10.195h-3.333v16.752h3.333v-16.752zM278.558 12.979c1 0 1.881 0.224 2.644 0.672 0.761 0.448 1.357 1.092 1.785 1.932 0.429 0.84 0.643 1.82 0.643 2.94s-0.214 2.104-0.643 2.952c-0.428 0.848-1.024 1.5-1.785 1.956-0.763 0.456-1.644 0.684-2.644 0.684s-1.885-0.228-2.654-0.684c-0.771-0.456-1.369-1.108-1.799-1.956-0.428-0.848-0.643-1.832-0.643-2.952s0.216-2.1 0.643-2.94c0.429-0.84 1.027-1.484 1.799-1.932 0.77-0.448 1.654-0.672 2.654-0.672z"></path>
<path fill="#fff" style="fill: var(--color2, #fff)" d="M305.61 7.276v-1.677h3.8v14.612h-1.859v-12.935h-1.94zM312.569 12.753c0-2.317 0.377-4.123 1.132-5.416 0.755-1.307 2.075-1.96 3.961-1.96 1.873 0 3.187 0.653 3.941 1.96 0.755 1.293 1.132 3.099 1.132 5.416 0 2.358-0.377 4.19-1.132 5.497s-2.068 1.96-3.941 1.96c-1.886 0-3.207-0.653-3.961-1.96s-1.132-3.139-1.132-5.497zM320.916 12.753c0-1.172-0.081-2.163-0.243-2.971-0.148-0.822-0.465-1.482-0.95-1.981-0.472-0.499-1.159-0.748-2.061-0.748-0.916 0-1.617 0.249-2.102 0.748-0.472 0.499-0.788 1.159-0.95 1.981-0.148 0.808-0.222 1.799-0.222 2.971 0 1.213 0.074 2.23 0.222 3.052 0.162 0.822 0.478 1.482 0.95 1.981 0.485 0.499 1.186 0.748 2.102 0.748 0.903 0 1.59-0.249 2.061-0.748 0.485-0.499 0.802-1.159 0.95-1.981 0.162-0.822 0.243-1.839 0.243-3.052zM325.26 12.753c0-2.317 0.377-4.123 1.132-5.416 0.755-1.307 2.075-1.96 3.961-1.96 1.873 0 3.187 0.653 3.941 1.96 0.755 1.293 1.132 3.099 1.132 5.416 0 2.358-0.377 4.19-1.132 5.497s-2.068 1.96-3.941 1.96c-1.886 0-3.207-0.653-3.961-1.96s-1.132-3.139-1.132-5.497zM333.607 12.753c0-1.172-0.081-2.163-0.243-2.971-0.148-0.822-0.465-1.482-0.95-1.981-0.472-0.499-1.159-0.748-2.061-0.748-0.916 0-1.617 0.249-2.102 0.748-0.472 0.499-0.788 1.159-0.95 1.981-0.148 0.808-0.222 1.799-0.222 2.971 0 1.213 0.074 2.23 0.222 3.052 0.162 0.822 0.478 1.482 0.95 1.981 0.485 0.499 1.186 0.748 2.102 0.748 0.903 0 1.59-0.249 2.061-0.748 0.485-0.499 0.802-1.159 0.95-1.981 0.162-0.822 0.243-1.839 0.243-3.052z"></path>
</symbol>
<symbol id="icon-Frame-2" viewBox="0 0 435 32">
<path fill="#fff" style="fill: var(--color2, #fff)" d="M41.049 5.053c0.109 0 0.197 0.088 0.197 0.197v0.206c0 0.109-0.088 0.197-0.197 0.197h-0.226v0.664c6.906 0.212 12.44 5.878 12.44 12.838 0 7.095-5.749 12.845-12.841 12.845s-12.843-5.751-12.843-12.845c0-6.959 5.534-12.625 12.44-12.837v-0.664h-0.226c-0.109 0-0.197-0.088-0.197-0.197v-0.206c0-0.109 0.088-0.197 0.197-0.197h1.256zM40.743 8.001v1.127c0 0.178-0.144 0.322-0.322 0.322s-0.322-0.144-0.322-0.322v-1.127c-5.907 0.168-10.662 4.924-10.83 10.832h1.127c0.178 0 0.322 0.144 0.322 0.322s-0.144 0.322-0.322 0.322h-1.127c0.168 5.908 4.923 10.664 10.83 10.832v-1.127c0-0.178 0.144-0.322 0.322-0.322s0.322 0.144 0.322 0.322v1.127c5.907-0.167 10.662-4.924 10.83-10.832h-1.127c-0.178 0-0.322-0.144-0.322-0.322s0.144-0.322 0.322-0.322h1.127c-0.167-5.909-4.922-10.665-10.83-10.832zM40.421 18.555c0.331 0 0.6 0.269 0.6 0.6 0 0.034-0.005 0.067-0.010 0.1l3.816 3.452c0.098 0.089 0.169 0.203 0.204 0.331l0.052 0.187c0.025 0.091-0.053 0.178-0.146 0.162l-0.192-0.033c-0.13-0.022-0.251-0.081-0.349-0.17l-3.817-3.452c-0.051 0.014-0.103 0.024-0.158 0.024-0.331 0-0.6-0.269-0.6-0.6s0.269-0.6 0.6-0.6z"></path>
<path fill="#fff" style="fill: var(--color2, #fff)" d="M64.768 7.276v-1.677h3.8v14.612h-1.859v-12.935h-1.94zM72.96 4.123l-0.243 4.022h-1.273l-0.263-4.022h1.779zM76.177 4.123l-0.243 4.022h-1.273l-0.263-4.022h1.779z"></path>
<path fill="#fff" style="fill: var(--color2, #fff)" d="M112.235 22.898l12.436 7.226c-1.993 1.198-4.305 1.876-6.776 1.876-2.033 0-3.946-0.439-5.66-1.277v-7.825zM111.238 15.831v14.372c-3.747-2.076-6.338-5.948-6.736-10.46l6.736-3.912zM131.368 18.426v0.12c0 4.551-2.272 8.583-5.74 10.979l-6.736-3.872 12.476-7.226zM124.552 6.849c3.747 2.076 6.338 5.948 6.736 10.459l-6.737 3.912v-14.372zM110.161 7.528l6.736 3.872-12.476 7.186v-0.040c0-4.591 2.272-8.623 5.74-11.019zM117.896 5.053c2.033 0 3.946 0.439 5.66 1.277v7.785l-12.437-7.226c1.993-1.158 4.305-1.836 6.776-1.836z"></path>
<path fill="#fff" style="fill: var(--color2, #fff)" d="M147.537 10.651h-2.324v9.56h-1.839v-9.56h-1.435v-1.516h1.435v-0.788c0-1.24 0.317-2.142 0.95-2.708 0.647-0.579 1.677-0.869 3.092-0.869v1.536c-0.808 0-1.381 0.162-1.718 0.485-0.323 0.31-0.485 0.829-0.485 1.556v0.788h2.324v1.516zM156.553 1.172l-5.538 22.474h-1.819l5.517-22.474h1.839zM158.505 7.276v-1.677h3.8v14.612h-1.859v-12.935h-1.94zM173.608 9.075c-0.296-1.496-1.219-2.243-2.769-2.243-1.199 0-2.095 0.465-2.688 1.395-0.593 0.916-0.883 2.432-0.869 4.547 0.31-0.701 0.822-1.246 1.536-1.637 0.728-0.404 1.536-0.606 2.425-0.606 1.388 0 2.493 0.431 3.315 1.293 0.835 0.862 1.253 2.055 1.253 3.577 0 0.916-0.182 1.738-0.546 2.466-0.35 0.728-0.889 1.307-1.617 1.738-0.714 0.431-1.583 0.647-2.607 0.647-1.388 0-2.472-0.31-3.254-0.93s-1.327-1.475-1.637-2.567c-0.31-1.091-0.465-2.439-0.465-4.042 0-4.945 1.725-7.417 5.174-7.417 1.32 0 2.358 0.357 3.112 1.071s1.199 1.617 1.334 2.708h-1.698zM170.86 12.086c-0.579 0-1.125 0.121-1.637 0.364-0.512 0.229-0.93 0.586-1.253 1.071-0.31 0.472-0.465 1.051-0.465 1.738 0 1.024 0.296 1.859 0.889 2.506 0.593 0.633 1.442 0.95 2.547 0.95 0.943 0 1.691-0.29 2.243-0.869 0.566-0.593 0.849-1.388 0.849-2.385 0-1.051-0.269-1.873-0.808-2.466-0.539-0.606-1.327-0.909-2.365-0.909z"></path>
<path fill="#fff" style="fill: var(--color2, #fff)" d="M254.146 5.053c2.885 0 5.223 2.356 5.223 5.263v16.421c0 2.907-2.338 5.263-5.223 5.263h-43.449c-2.885 0-5.223-2.356-5.223-5.263v-16.421c0-2.907 2.338-5.263 5.223-5.263h43.449zM226.88 9.955c-1.144 0-2.159 0.196-3.048 0.588s-1.58 0.956-2.072 1.692c-0.492 0.736-0.738 1.6-0.738 2.592 0 1.056 0.241 1.9 0.726 2.532 0.483 0.632 1.063 1.104 1.738 1.416s1.551 0.628 2.631 0.948c0.795 0.224 1.418 0.428 1.869 0.612 0.453 0.184 0.83 0.436 1.132 0.756s0.453 0.728 0.453 1.224c0 0.608-0.222 1.1-0.667 1.476s-1.056 0.564-1.834 0.564c-0.761 0-1.361-0.2-1.797-0.6-0.419-0.384-0.66-0.901-0.721-1.55l-0.007-0.082h-3.572l0.003 0.109c0.034 0.978 0.31 1.83 0.83 2.555 0.541 0.752 1.275 1.328 2.203 1.728 0.93 0.4 1.972 0.6 3.131 0.6 1.223 0 2.279-0.228 3.168-0.684s1.565-1.068 2.024-1.836 0.691-1.6 0.691-2.496c0-1.040-0.246-1.88-0.738-2.52-0.493-0.64-1.080-1.12-1.763-1.44-0.682-0.32-1.563-0.64-2.643-0.96-0.795-0.24-1.41-0.452-1.846-0.636s-0.802-0.424-1.095-0.72c-0.295-0.296-0.441-0.668-0.441-1.116 0-0.64 0.194-1.128 0.583-1.464s0.909-0.504 1.561-0.504c0.746 0 1.344 0.188 1.797 0.564 0.435 0.36 0.674 0.813 0.721 1.357l0.005 0.071h3.668l-0.008-0.102c-0.13-1.455-0.719-2.593-1.767-3.414-1.071-0.84-2.464-1.26-4.179-1.26zM244.874 9.955c-1.556 0-2.984 0.368-4.286 1.104s-2.334 1.756-3.096 3.060c-0.761 1.304-1.144 2.772-1.144 4.404 0 1.648 0.382 3.124 1.144 4.428s1.794 2.324 3.096 3.060c1.302 0.736 2.73 1.104 4.286 1.104s2.984-0.368 4.286-1.104c1.302-0.736 2.331-1.756 3.084-3.060 0.755-1.304 1.132-2.78 1.132-4.428 0-1.632-0.377-3.1-1.132-4.404-0.753-1.304-1.777-2.324-3.072-3.060-1.293-0.736-2.727-1.104-4.298-1.104zM216.862 10.195h-3.333v16.752h3.333v-16.752zM244.874 12.979c1 0 1.881 0.224 2.644 0.672 0.761 0.448 1.357 1.092 1.785 1.932 0.429 0.84 0.643 1.82 0.643 2.94s-0.214 2.104-0.643 2.952c-0.428 0.848-1.024 1.5-1.785 1.956-0.763 0.456-1.644 0.684-2.644 0.684s-1.885-0.228-2.654-0.684c-0.771-0.456-1.369-1.108-1.799-1.956-0.428-0.848-0.643-1.832-0.643-2.952s0.216-2.1 0.643-2.94c0.429-0.84 1.027-1.484 1.799-1.932 0.77-0.448 1.654-0.672 2.654-0.672z"></path>
<path fill="#fff" style="fill: var(--color2, #fff)" d="M271.966 16.957v-1.395l7.094-9.822h2.203v9.62h2.021v1.597h-2.021v3.254h-1.819v-3.254h-7.478zM279.525 7.66l-5.437 7.7h5.437v-7.7zM285.122 12.753c0-2.317 0.377-4.123 1.132-5.416 0.755-1.307 2.075-1.96 3.961-1.96 1.873 0 3.187 0.653 3.941 1.96 0.755 1.293 1.132 3.099 1.132 5.416 0 2.358-0.377 4.19-1.132 5.497s-2.068 1.96-3.941 1.96c-1.886 0-3.207-0.653-3.961-1.96s-1.132-3.139-1.132-5.497zM293.469 12.753c0-1.172-0.081-2.163-0.243-2.971-0.148-0.822-0.465-1.482-0.95-1.981-0.472-0.499-1.159-0.748-2.061-0.748-0.916 0-1.617 0.249-2.102 0.748-0.472 0.499-0.788 1.159-0.95 1.981-0.148 0.808-0.222 1.799-0.222 2.971 0 1.213 0.074 2.23 0.222 3.052 0.162 0.822 0.478 1.482 0.95 1.981 0.485 0.499 1.186 0.748 2.102 0.748 0.903 0 1.59-0.249 2.061-0.748 0.485-0.499 0.802-1.159 0.95-1.981 0.162-0.822 0.243-1.839 0.243-3.052zM297.812 12.753c0-2.317 0.377-4.123 1.132-5.416 0.755-1.307 2.075-1.96 3.961-1.96 1.873 0 3.187 0.653 3.941 1.96 0.755 1.293 1.132 3.099 1.132 5.416 0 2.358-0.377 4.19-1.132 5.497s-2.068 1.96-3.941 1.96c-1.886 0-3.207-0.653-3.961-1.96s-1.132-3.139-1.132-5.497zM306.159 12.753c0-1.172-0.081-2.163-0.243-2.971-0.148-0.822-0.465-1.482-0.95-1.981-0.472-0.499-1.159-0.748-2.061-0.748-0.916 0-1.617 0.249-2.102 0.748-0.472 0.499-0.788 1.159-0.95 1.981-0.148 0.808-0.222 1.799-0.222 2.971 0 1.213 0.074 2.23 0.222 3.052 0.162 0.822 0.478 1.482 0.95 1.981 0.485 0.499 1.186 0.748 2.102 0.748 0.903 0 1.59-0.249 2.061-0.748 0.485-0.499 0.802-1.159 0.95-1.981 0.162-0.822 0.243-1.839 0.243-3.052z"></path>
<path fill="#fff" style="fill: var(--color2, #fff)" d="M346.947 15.907c-1.62 0-2.931-1.253-2.931-2.802 0-1.546 1.31-2.799 2.931-2.799 1.617 0 2.927 1.253 2.927 2.799 0 1.549-1.31 2.802-2.927 2.802zM346.947 5.053c-4.65 0-8.421 3.605-8.421 8.052 0 3.246 4.478 12.952 6.904 17.969 0.596 1.236 2.434 1.236 3.035 0 2.422-5.017 6.904-14.723 6.904-17.969 0-4.446-3.771-8.052-8.421-8.052z"></path>
<path fill="#fff" style="fill: var(--color2, #fff)" d="M372.44 6.124v10.408c0 1.159-0.357 2.088-1.071 2.789-0.714 0.687-1.657 1.031-2.829 1.031-1.186 0-2.136-0.35-2.85-1.051-0.714-0.714-1.071-1.684-1.071-2.91h1.839c0.013 0.687 0.189 1.246 0.525 1.677 0.35 0.431 0.869 0.647 1.556 0.647s1.199-0.202 1.536-0.606c0.337-0.418 0.505-0.943 0.505-1.576v-10.408h1.859zM375.375 14.632c0-1.132 0.229-2.122 0.687-2.971 0.458-0.862 1.085-1.529 1.88-2.001 0.808-0.472 1.704-0.707 2.688-0.707 0.97 0 1.812 0.209 2.526 0.627s1.246 0.943 1.597 1.576v-2.021h1.859v11.075h-1.859v-2.061c-0.364 0.647-0.909 1.186-1.637 1.617-0.714 0.418-1.549 0.627-2.506 0.627-0.984 0-1.873-0.243-2.668-0.728s-1.421-1.165-1.88-2.041c-0.458-0.876-0.687-1.873-0.687-2.991zM384.753 14.653c0-0.835-0.168-1.563-0.505-2.183s-0.795-1.091-1.374-1.415c-0.566-0.337-1.192-0.505-1.88-0.505s-1.314 0.162-1.88 0.485c-0.566 0.323-1.017 0.795-1.354 1.415s-0.505 1.347-0.505 2.183c0 0.849 0.168 1.59 0.505 2.223 0.337 0.62 0.788 1.098 1.354 1.435 0.566 0.323 1.192 0.485 1.88 0.485s1.314-0.162 1.88-0.485c0.579-0.337 1.037-0.815 1.374-1.435 0.337-0.633 0.505-1.368 0.505-2.203zM391.56 11.176c0.364-0.633 0.903-1.159 1.617-1.576 0.728-0.431 1.57-0.647 2.526-0.647 0.984 0 1.873 0.236 2.668 0.707 0.808 0.472 1.442 1.139 1.9 2.001 0.458 0.849 0.687 1.839 0.687 2.971 0 1.118-0.229 2.115-0.687 2.991s-1.091 1.556-1.9 2.041c-0.795 0.485-1.684 0.728-2.668 0.728-0.943 0-1.779-0.209-2.506-0.627-0.714-0.431-1.26-0.963-1.637-1.597v7.296h-1.839v-16.33h1.839v2.041zM399.079 14.632c0-0.835-0.168-1.563-0.505-2.183s-0.795-1.091-1.374-1.415c-0.566-0.323-1.192-0.485-1.88-0.485-0.674 0-1.3 0.168-1.88 0.505-0.566 0.323-1.024 0.802-1.374 1.435-0.337 0.62-0.505 1.341-0.505 2.163 0 0.835 0.168 1.57 0.505 2.203 0.35 0.62 0.808 1.098 1.374 1.435 0.579 0.323 1.206 0.485 1.88 0.485 0.687 0 1.314-0.162 1.88-0.485 0.579-0.337 1.037-0.815 1.374-1.435 0.337-0.633 0.505-1.374 0.505-2.223zM402.691 14.632c0-1.132 0.229-2.122 0.687-2.971 0.458-0.862 1.085-1.529 1.88-2.001 0.808-0.472 1.704-0.707 2.688-0.707 0.97 0 1.812 0.209 2.526 0.627s1.246 0.943 1.597 1.576v-2.021h1.859v11.075h-1.859v-2.061c-0.364 0.647-0.909 1.186-1.637 1.617-0.714 0.418-1.549 0.627-2.506 0.627-0.984 0-1.873-0.243-2.668-0.728s-1.421-1.165-1.88-2.041c-0.458-0.876-0.687-1.873-0.687-2.991zM412.069 14.653c0-0.835-0.168-1.563-0.505-2.183s-0.795-1.091-1.374-1.415c-0.566-0.337-1.192-0.505-1.88-0.505s-1.314 0.162-1.88 0.485c-0.566 0.323-1.017 0.795-1.354 1.415s-0.505 1.347-0.505 2.183c0 0.849 0.168 1.59 0.505 2.223 0.337 0.62 0.788 1.098 1.354 1.435 0.566 0.323 1.192 0.485 1.88 0.485s1.314-0.162 1.88-0.485c0.579-0.337 1.037-0.815 1.374-1.435 0.337-0.633 0.505-1.368 0.505-2.203zM422.432 8.933c1.347 0 2.439 0.411 3.274 1.233 0.835 0.808 1.253 1.981 1.253 3.517v6.528h-1.819v-6.265c0-1.105-0.276-1.947-0.829-2.526-0.552-0.593-1.307-0.889-2.264-0.889-0.97 0-1.745 0.303-2.324 0.909-0.566 0.606-0.849 1.489-0.849 2.648v6.124h-1.839v-11.075h1.839v1.576c0.364-0.566 0.856-1.004 1.475-1.314 0.633-0.31 1.327-0.465 2.082-0.465z"></path>
</symbol>
<symbol id="icon-Frame-1" viewBox="0 0 499 32">
<path fill="#fff" style="fill: var(--color2, #fff)" d="M41.049 5.053c0.109 0 0.197 0.088 0.197 0.197v0.206c0 0.109-0.088 0.197-0.197 0.197h-0.226v0.664c6.906 0.212 12.44 5.878 12.44 12.838 0 7.095-5.749 12.845-12.841 12.845s-12.843-5.751-12.843-12.845c0-6.959 5.534-12.625 12.44-12.837v-0.664h-0.226c-0.109 0-0.197-0.088-0.197-0.197v-0.206c0-0.109 0.088-0.197 0.197-0.197h1.256zM40.743 8.001v1.127c0 0.178-0.144 0.322-0.322 0.322s-0.322-0.144-0.322-0.322v-1.127c-5.907 0.168-10.662 4.924-10.83 10.832h1.127c0.178 0 0.322 0.144 0.322 0.322s-0.144 0.322-0.322 0.322h-1.127c0.168 5.908 4.923 10.664 10.83 10.832v-1.127c0-0.178 0.144-0.322 0.322-0.322s0.322 0.144 0.322 0.322v1.127c5.907-0.167 10.662-4.924 10.83-10.832h-1.127c-0.178 0-0.322-0.144-0.322-0.322s0.144-0.322 0.322-0.322h1.127c-0.167-5.909-4.922-10.665-10.83-10.832zM40.421 18.555c0.331 0 0.6 0.269 0.6 0.6 0 0.034-0.005 0.067-0.010 0.1l3.816 3.452c0.098 0.089 0.169 0.203 0.204 0.331l0.052 0.187c0.025 0.091-0.053 0.178-0.146 0.162l-0.192-0.033c-0.13-0.022-0.251-0.081-0.349-0.17l-3.817-3.452c-0.051 0.014-0.103 0.024-0.158 0.024-0.331 0-0.6-0.269-0.6-0.6s0.269-0.6 0.6-0.6z"></path>
<path fill="#fff" style="fill: var(--color2, #fff)" d="M64.768 7.276v-1.677h3.8v14.612h-1.859v-12.935h-1.94zM78.902 1.172l-5.538 22.474h-1.819l5.517-22.474h1.839zM81.116 18.735c1.711-1.374 3.052-2.499 4.022-3.375 0.97-0.889 1.785-1.812 2.445-2.769 0.674-0.97 1.011-1.92 1.011-2.85 0-0.876-0.216-1.563-0.647-2.061-0.418-0.512-1.098-0.768-2.041-0.768-0.916 0-1.63 0.29-2.142 0.869-0.499 0.566-0.768 1.327-0.808 2.284h-1.779c0.054-1.509 0.512-2.675 1.374-3.496s1.974-1.233 3.335-1.233c1.388 0 2.486 0.384 3.294 1.152 0.822 0.768 1.233 1.826 1.233 3.173 0 1.118-0.337 2.21-1.011 3.274-0.66 1.051-1.415 1.981-2.264 2.789-0.849 0.795-1.933 1.725-3.254 2.789h6.952v1.536h-9.721v-1.314zM92.964 12.753c0-2.317 0.377-4.123 1.132-5.416 0.755-1.307 2.075-1.96 3.961-1.96 1.873 0 3.187 0.653 3.941 1.96 0.755 1.293 1.132 3.099 1.132 5.416 0 2.358-0.377 4.19-1.132 5.497s-2.068 1.96-3.941 1.96c-1.886 0-3.207-0.653-3.961-1.96s-1.132-3.139-1.132-5.497zM101.31 12.753c0-1.172-0.081-2.163-0.243-2.971-0.148-0.822-0.465-1.482-0.95-1.981-0.472-0.499-1.159-0.748-2.061-0.748-0.916 0-1.617 0.249-2.102 0.748-0.472 0.499-0.788 1.159-0.95 1.981-0.148 0.808-0.222 1.799-0.222 2.971 0 1.213 0.074 2.23 0.222 3.052 0.162 0.822 0.478 1.482 0.95 1.981 0.485 0.499 1.186 0.748 2.102 0.748 0.903 0 1.59-0.249 2.061-0.748 0.485-0.499 0.802-1.159 0.95-1.981 0.162-0.822 0.243-1.839 0.243-3.052zM105.654 12.753c0-2.317 0.377-4.123 1.132-5.416 0.755-1.307 2.075-1.96 3.961-1.96 1.873 0 3.187 0.653 3.941 1.96 0.755 1.293 1.132 3.099 1.132 5.416 0 2.358-0.377 4.19-1.132 5.497s-2.068 1.96-3.941 1.96c-1.886 0-3.207-0.653-3.961-1.96s-1.132-3.139-1.132-5.497zM114.001 12.753c0-1.172-0.081-2.163-0.243-2.971-0.148-0.822-0.465-1.482-0.95-1.981-0.472-0.499-1.159-0.748-2.061-0.748-0.916 0-1.617 0.249-2.102 0.748-0.472 0.499-0.788 1.159-0.95 1.981-0.148 0.808-0.222 1.799-0.222 2.971 0 1.213 0.074 2.23 0.222 3.052 0.162 0.822 0.478 1.482 0.95 1.981 0.485 0.499 1.186 0.748 2.102 0.748 0.903 0 1.59-0.249 2.061-0.748 0.485-0.499 0.802-1.159 0.95-1.981 0.162-0.822 0.243-1.839 0.243-3.052zM118.345 12.753c0-2.317 0.377-4.123 1.132-5.416 0.755-1.307 2.075-1.96 3.961-1.96 1.873 0 3.187 0.653 3.941 1.96 0.755 1.293 1.132 3.099 1.132 5.416 0 2.358-0.377 4.19-1.132 5.497s-2.068 1.96-3.941 1.96c-1.886 0-3.207-0.653-3.961-1.96s-1.132-3.139-1.132-5.497zM126.692 12.753c0-1.172-0.081-2.163-0.243-2.971-0.148-0.822-0.465-1.482-0.95-1.981-0.472-0.499-1.159-0.748-2.061-0.748-0.916 0-1.617 0.249-2.102 0.748-0.472 0.499-0.788 1.159-0.95 1.981-0.148 0.808-0.222 1.799-0.222 2.971 0 1.213 0.074 2.23 0.222 3.052 0.162 0.822 0.478 1.482 0.95 1.981 0.485 0.499 1.186 0.748 2.102 0.748 0.903 0 1.59-0.249 2.061-0.748 0.485-0.499 0.802-1.159 0.95-1.981 0.162-0.822 0.243-1.839 0.243-3.052zM135.26 20.392c-0.849 0-1.61-0.141-2.284-0.424-0.674-0.296-1.206-0.701-1.597-1.213-0.391-0.525-0.606-1.125-0.647-1.799h1.9c0.054 0.552 0.31 1.004 0.768 1.354 0.472 0.35 1.085 0.525 1.839 0.525 0.701 0 1.253-0.155 1.657-0.465s0.606-0.701 0.606-1.172c0-0.485-0.216-0.842-0.647-1.071-0.431-0.243-1.098-0.478-2.001-0.707-0.822-0.216-1.496-0.431-2.021-0.647-0.512-0.229-0.957-0.559-1.334-0.99-0.364-0.445-0.546-1.024-0.546-1.738 0-0.566 0.168-1.085 0.505-1.556s0.815-0.842 1.435-1.112c0.62-0.283 1.327-0.424 2.122-0.424 1.226 0 2.216 0.31 2.971 0.93s1.159 1.469 1.213 2.547h-1.839c-0.040-0.579-0.276-1.044-0.707-1.395-0.418-0.35-0.984-0.525-1.698-0.525-0.66 0-1.186 0.141-1.576 0.424s-0.586 0.653-0.586 1.112c0 0.364 0.115 0.667 0.344 0.909 0.243 0.229 0.539 0.418 0.889 0.566 0.364 0.135 0.862 0.29 1.496 0.465 0.795 0.216 1.442 0.431 1.94 0.647 0.499 0.202 0.923 0.512 1.273 0.93 0.364 0.418 0.552 0.963 0.566 1.637 0 0.606-0.168 1.152-0.505 1.637s-0.815 0.869-1.435 1.152c-0.606 0.269-1.307 0.404-2.102 0.404z"></path>
<path fill="#fff" style="fill: var(--color2, #fff)" d="M314.777 5.053c2.885 0 5.223 2.356 5.223 5.263v16.421c0 2.907-2.338 5.263-5.223 5.263h-43.449c-2.885 0-5.223-2.356-5.223-5.263v-16.421c0-2.907 2.338-5.263 5.223-5.263h43.449zM287.512 9.955c-1.144 0-2.159 0.196-3.048 0.588s-1.58 0.956-2.072 1.692c-0.492 0.736-0.738 1.6-0.738 2.592 0 1.056 0.241 1.9 0.726 2.532 0.483 0.632 1.063 1.104 1.738 1.416s1.551 0.628 2.631 0.948c0.795 0.224 1.418 0.428 1.869 0.612 0.453 0.184 0.83 0.436 1.132 0.756s0.453 0.728 0.453 1.224c0 0.608-0.222 1.1-0.667 1.476s-1.056 0.564-1.834 0.564c-0.761 0-1.361-0.2-1.797-0.6-0.419-0.384-0.66-0.901-0.721-1.55l-0.007-0.082h-3.572l0.003 0.109c0.034 0.978 0.31 1.83 0.83 2.555 0.541 0.752 1.275 1.328 2.203 1.728 0.93 0.4 1.972 0.6 3.131 0.6 1.223 0 2.279-0.228 3.168-0.684s1.565-1.068 2.024-1.836 0.691-1.6 0.691-2.496c0-1.040-0.246-1.88-0.738-2.52-0.493-0.64-1.080-1.12-1.763-1.44-0.682-0.32-1.563-0.64-2.643-0.96-0.795-0.24-1.41-0.452-1.846-0.636s-0.802-0.424-1.095-0.72c-0.295-0.296-0.441-0.668-0.441-1.116 0-0.64 0.194-1.128 0.583-1.464s0.909-0.504 1.561-0.504c0.746 0 1.344 0.188 1.797 0.564 0.435 0.36 0.674 0.813 0.721 1.357l0.005 0.071h3.668l-0.008-0.102c-0.13-1.455-0.719-2.593-1.767-3.414-1.071-0.84-2.464-1.26-4.179-1.26zM305.506 9.955c-1.556 0-2.984 0.368-4.286 1.104s-2.334 1.756-3.096 3.060c-0.761 1.304-1.144 2.772-1.144 4.404 0 1.648 0.382 3.124 1.144 4.428s1.794 2.324 3.096 3.060c1.302 0.736 2.73 1.104 4.286 1.104s2.984-0.368 4.286-1.104c1.302-0.736 2.331-1.756 3.084-3.060 0.755-1.304 1.132-2.78 1.132-4.428 0-1.632-0.377-3.1-1.132-4.404-0.753-1.304-1.777-2.324-3.072-3.060-1.293-0.736-2.727-1.104-4.298-1.104zM277.494 10.195h-3.333v16.752h3.333v-16.752zM305.506 12.979c1 0 1.881 0.224 2.644 0.672 0.761 0.448 1.357 1.092 1.785 1.932 0.429 0.84 0.643 1.82 0.643 2.94s-0.214 2.104-0.643 2.952c-0.428 0.848-1.024 1.5-1.785 1.956-0.763 0.456-1.644 0.684-2.644 0.684s-1.885-0.228-2.654-0.684c-0.771-0.456-1.369-1.108-1.799-1.956-0.428-0.848-0.643-1.832-0.643-2.952s0.216-2.1 0.643-2.94c0.429-0.84 1.027-1.484 1.799-1.932 0.77-0.448 1.654-0.672 2.654-0.672z"></path>
<path fill="#fff" style="fill: var(--color2, #fff)" d="M332.557 7.276v-1.677h3.8v14.612h-1.859v-12.935h-1.94zM339.517 12.753c0-2.317 0.377-4.123 1.132-5.416 0.755-1.307 2.075-1.96 3.961-1.96 1.873 0 3.187 0.653 3.941 1.96 0.755 1.293 1.132 3.099 1.132 5.416 0 2.358-0.377 4.19-1.132 5.497s-2.068 1.96-3.941 1.96c-1.886 0-3.207-0.653-3.961-1.96s-1.132-3.139-1.132-5.497zM347.864 12.753c0-1.172-0.081-2.163-0.243-2.971-0.148-0.822-0.465-1.482-0.95-1.981-0.472-0.499-1.159-0.748-2.061-0.748-0.916 0-1.617 0.249-2.102 0.748-0.472 0.499-0.788 1.159-0.95 1.981-0.148 0.808-0.222 1.799-0.222 2.971 0 1.213 0.074 2.23 0.222 3.052 0.162 0.822 0.478 1.482 0.95 1.981 0.485 0.499 1.186 0.748 2.102 0.748 0.903 0 1.59-0.249 2.061-0.748 0.485-0.499 0.802-1.159 0.95-1.981 0.162-0.822 0.243-1.839 0.243-3.052zM352.207 12.753c0-2.317 0.377-4.123 1.132-5.416 0.755-1.307 2.075-1.96 3.961-1.96 1.873 0 3.187 0.653 3.941 1.96 0.755 1.293 1.132 3.099 1.132 5.416 0 2.358-0.377 4.19-1.132 5.497s-2.068 1.96-3.941 1.96c-1.886 0-3.207-0.653-3.961-1.96s-1.132-3.139-1.132-5.497zM360.554 12.753c0-1.172-0.081-2.163-0.243-2.971-0.148-0.822-0.465-1.482-0.95-1.981-0.472-0.499-1.159-0.748-2.061-0.748-0.916 0-1.617 0.249-2.102 0.748-0.472 0.499-0.788 1.159-0.95 1.981-0.148 0.808-0.222 1.799-0.222 2.971 0 1.213 0.074 2.23 0.222 3.052 0.162 0.822 0.478 1.482 0.95 1.981 0.485 0.499 1.186 0.748 2.102 0.748 0.903 0 1.59-0.249 2.061-0.748 0.485-0.499 0.802-1.159 0.95-1.981 0.162-0.822 0.243-1.839 0.243-3.052z"></path>
<path fill="#fff" style="fill: var(--color2, #fff)" d="M179.603 22.898l12.436 7.226c-1.992 1.198-4.305 1.876-6.776 1.876-2.033 0-3.946-0.439-5.661-1.277v-7.825zM178.605 15.831v14.372c-3.746-2.076-6.338-5.948-6.735-10.46l6.735-3.912zM198.737 18.426v0.12c0 4.551-2.272 8.583-5.74 10.979l-6.737-3.872 12.477-7.226zM191.921 6.849c3.747 2.076 6.338 5.948 6.737 10.459l-6.737 3.912v-14.372zM177.529 7.528l6.737 3.872-12.477 7.186v-0.040c0-4.591 2.272-8.623 5.74-11.019zM185.263 5.053c2.035 0 3.948 0.439 5.661 1.277v7.785l-12.436-7.226c1.992-1.158 4.305-1.836 6.776-1.836z"></path>
<path fill="#fff" style="fill: var(--color2, #fff)" d="M214.905 10.651h-2.324v9.56h-1.839v-9.56h-1.435v-1.516h1.435v-0.788c0-1.24 0.317-2.142 0.95-2.708 0.647-0.579 1.677-0.869 3.092-0.869v1.536c-0.808 0-1.381 0.162-1.718 0.485-0.323 0.31-0.485 0.829-0.485 1.556v0.788h2.324v1.516zM223.921 1.172l-5.538 22.474h-1.819l5.517-22.474h1.839zM225.873 7.276v-1.677h3.8v14.612h-1.859v-12.935h-1.94zM232.347 7.276v-1.677h3.8v14.612h-1.859v-12.935h-1.94z"></path>
<path fill="#fff" style="fill: var(--color2, #fff)" d="M400.842 15.907c-1.62 0-2.931-1.253-2.931-2.802 0-1.546 1.31-2.799 2.931-2.799 1.617 0 2.927 1.253 2.927 2.799 0 1.549-1.31 2.802-2.927 2.802zM400.842 5.053c-4.65 0-8.421 3.605-8.421 8.052 0 3.246 4.478 12.952 6.904 17.969 0.596 1.236 2.434 1.236 3.035 0 2.422-5.017 6.904-14.723 6.904-17.969 0-4.446-3.771-8.052-8.421-8.052z"></path>
<path fill="#fff" style="fill: var(--color2, #fff)" d="M421.080 6.124v14.087h-1.839v-14.087h1.839zM423.527 14.653c0-1.145 0.229-2.142 0.687-2.991 0.458-0.862 1.091-1.529 1.9-2.001 0.822-0.472 1.758-0.707 2.809-0.707 1.361 0 2.479 0.33 3.355 0.99 0.889 0.66 1.475 1.576 1.758 2.749h-1.981c-0.189-0.674-0.559-1.206-1.112-1.597-0.539-0.391-1.213-0.586-2.021-0.586-1.051 0-1.9 0.364-2.547 1.091-0.647 0.714-0.97 1.731-0.97 3.052 0 1.334 0.323 2.365 0.97 3.092s1.496 1.091 2.547 1.091c0.808 0 1.482-0.189 2.021-0.566s0.909-0.916 1.112-1.617h1.981c-0.296 1.132-0.889 2.041-1.779 2.728-0.889 0.674-2.001 1.011-3.335 1.011-1.051 0-1.987-0.236-2.809-0.707-0.808-0.472-1.442-1.139-1.9-2.001s-0.687-1.873-0.687-3.032zM446.595 14.248c0 0.35-0.020 0.721-0.061 1.112h-8.852c0.067 1.091 0.438 1.947 1.112 2.567 0.687 0.606 1.516 0.909 2.486 0.909 0.795 0 1.455-0.182 1.981-0.546 0.539-0.377 0.916-0.876 1.132-1.496h1.981c-0.296 1.064-0.889 1.933-1.779 2.607-0.889 0.66-1.994 0.99-3.315 0.99-1.051 0-1.994-0.236-2.829-0.707-0.822-0.472-1.469-1.139-1.94-2.001-0.472-0.876-0.707-1.886-0.707-3.032s0.229-2.149 0.687-3.011c0.458-0.862 1.098-1.523 1.92-1.981 0.835-0.472 1.792-0.707 2.87-0.707 1.051 0 1.981 0.229 2.789 0.687s1.428 1.091 1.859 1.9c0.445 0.795 0.667 1.698 0.667 2.708zM444.696 13.864c0-0.701-0.155-1.3-0.465-1.799-0.31-0.512-0.734-0.896-1.273-1.152-0.525-0.269-1.112-0.404-1.758-0.404-0.93 0-1.725 0.296-2.385 0.889-0.647 0.593-1.017 1.415-1.112 2.466h6.993zM450.863 5.255v14.956h-1.839v-14.956h1.839zM453.31 14.632c0-1.132 0.229-2.122 0.687-2.971 0.458-0.862 1.085-1.529 1.88-2.001 0.808-0.472 1.704-0.707 2.688-0.707 0.97 0 1.812 0.209 2.526 0.627s1.246 0.943 1.597 1.576v-2.021h1.859v11.075h-1.859v-2.061c-0.364 0.647-0.909 1.186-1.637 1.617-0.714 0.418-1.549 0.627-2.506 0.627-0.984 0-1.873-0.243-2.668-0.728s-1.421-1.165-1.88-2.041c-0.458-0.876-0.687-1.873-0.687-2.991zM462.688 14.653c0-0.835-0.168-1.563-0.505-2.183s-0.795-1.091-1.374-1.415c-0.566-0.337-1.192-0.505-1.88-0.505s-1.314 0.162-1.88 0.485c-0.566 0.323-1.017 0.795-1.354 1.415s-0.505 1.347-0.505 2.183c0 0.849 0.168 1.59 0.505 2.223 0.337 0.62 0.788 1.098 1.354 1.435 0.566 0.323 1.192 0.485 1.88 0.485s1.314-0.162 1.88-0.485c0.579-0.337 1.037-0.815 1.374-1.435 0.337-0.633 0.505-1.368 0.505-2.203zM473.051 8.933c1.347 0 2.439 0.411 3.274 1.233 0.835 0.808 1.253 1.981 1.253 3.517v6.528h-1.819v-6.265c0-1.105-0.276-1.947-0.829-2.526-0.552-0.593-1.307-0.889-2.264-0.889-0.97 0-1.745 0.303-2.324 0.909-0.566 0.606-0.849 1.489-0.849 2.648v6.124h-1.839v-11.075h1.839v1.576c0.364-0.566 0.856-1.004 1.475-1.314 0.633-0.31 1.327-0.465 2.082-0.465zM479.896 14.632c0-1.132 0.229-2.122 0.687-2.971 0.458-0.862 1.085-1.529 1.88-2.001 0.808-0.472 1.711-0.707 2.708-0.707 0.862 0 1.664 0.202 2.405 0.606 0.741 0.391 1.307 0.909 1.698 1.556v-5.861h1.859v14.956h-1.859v-2.082c-0.364 0.66-0.903 1.206-1.617 1.637-0.714 0.418-1.549 0.627-2.506 0.627-0.984 0-1.88-0.243-2.688-0.728-0.795-0.485-1.421-1.165-1.88-2.041s-0.687-1.873-0.687-2.991zM489.273 14.653c0-0.835-0.168-1.563-0.505-2.183s-0.795-1.091-1.374-1.415c-0.566-0.337-1.192-0.505-1.88-0.505s-1.314 0.162-1.88 0.485c-0.566 0.323-1.017 0.795-1.354 1.415s-0.505 1.347-0.505 2.183c0 0.849 0.168 1.59 0.505 2.223 0.337 0.62 0.788 1.098 1.354 1.435 0.566 0.323 1.192 0.485 1.88 0.485s1.314-0.162 1.88-0.485c0.579-0.337 1.037-0.815 1.374-1.435 0.337-0.633 0.505-1.368 0.505-2.203z"></path>
</symbol>
</defs>
</svg>
